<svg width="13" height="14" viewBox="0 0 13 14" fill="none" xmlns="http://www.w3.org/2000/svg">
<path d="M3.39258 14C2.47903 14 1.62341 13.6036 1.0059 12.9714C-0.191675 11.7457 -0.52516 9.60633 1.15357 7.88844L8.04088 0.838278C8.73893 0.123977 9.62705 -0.152458 10.477 0.0811187C11.3128 0.309695 11.9968 1.01043 12.2207 1.86544C12.4482 2.73689 12.1791 3.6462 11.4817 4.3605L4.89467 11.1035C4.5188 11.4885 4.09346 11.7164 3.66671 11.7621C3.2435 11.8078 2.84007 11.6692 2.55745 11.3799C2.04592 10.8542 1.97244 9.86777 2.82452 8.99632L7.45092 4.2605C7.64098 4.06621 7.94903 4.06621 8.13908 4.2605C8.32914 4.45479 8.32914 4.77051 8.13908 4.9648L3.51198 9.70133C3.11208 10.1099 3.07534 10.5006 3.24562 10.6756C3.32051 10.7514 3.43356 10.7864 3.56427 10.7714C3.76422 10.7506 3.99243 10.6171 4.20651 10.3992L10.7935 3.65691C11.2457 3.19405 11.4188 2.64975 11.281 2.12474C11.2122 1.868 11.0789 1.6336 10.8941 1.44425C10.7093 1.25491 10.4792 1.11704 10.2262 1.044C9.71325 0.90328 9.18052 1.08114 8.72834 1.54401L1.84103 8.59417C0.557959 9.90777 0.865302 11.4199 1.69336 12.2678C2.52213 13.1157 3.99808 13.4314 5.28186 12.1164L12.1692 5.06623C12.2141 5.02005 12.2676 4.98338 12.3267 4.95835C12.3858 4.93331 12.4492 4.92042 12.5132 4.92042C12.5773 4.92042 12.6407 4.93331 12.6998 4.95835C12.7589 4.98338 12.8124 5.02005 12.8573 5.06623C12.9488 5.16027 13 5.28687 13 5.41874C13 5.55061 12.9488 5.6772 12.8573 5.77125L5.97002 12.8214C5.15821 13.6514 4.2489 14 3.39258 14Z" fill="#007F7F"/>
</svg>
