<svg width="32" height="32" viewBox="0 0 32 32" fill="none" xmlns="http://www.w3.org/2000/svg">
<path d="M30.395 3.185H1.6C0.72 3.185 0 3.9 0 4.785V17.31C0 18.195 0.72 18.915 1.6 18.915H8.005V26.75C8.005 27.89 8.83 28.82 9.845 28.82H22.155C23.17 28.82 23.995 27.89 23.995 26.75V18.915H30.395C31.28 18.915 32 18.195 32 17.31V4.785C32 3.9 31.28 3.185 30.395 3.185ZM8.005 12.965H5.49C5.25 12.965 5.05 12.77 5.05 12.53V10.125C5.05 9.88 5.245 9.685 5.49 9.685H8.005V12.965ZM23.025 26.75C23.025 27.355 22.635 27.85 22.155 27.85H9.845C9.365 27.85 8.975 27.355 8.975 26.75V9.69H23.025V26.75ZM31.03 17.31C31.03 17.66 30.745 17.945 30.395 17.945H23.995V13.935H26.515C27.29 13.935 27.92 13.305 27.92 12.53V10.125C27.92 9.35 27.29 8.715 26.515 8.715H5.49C4.715 8.715 4.08 9.345 4.08 10.125V12.53C4.08 13.305 4.71 13.935 5.49 13.935H8.005V17.945H1.6C1.25 17.945 0.97 17.66 0.97 17.31V4.785C0.97 4.435 1.255 4.155 1.6 4.155H30.395C30.745 4.155 31.03 4.44 31.03 4.785V17.31ZM23.995 12.965V9.69H26.515C26.755 9.69 26.95 9.885 26.95 10.13V12.535C26.95 12.775 26.755 12.97 26.515 12.97H23.995V12.965Z" fill="#7F007F"/>
<path d="M11.8048 13.77C12.0748 13.77 12.2898 13.555 12.2898 13.285V11.425C12.2898 11.155 12.0748 10.94 11.8048 10.94C11.5348 10.94 11.3198 11.155 11.3198 11.425V13.285C11.3198 13.555 11.5398 13.77 11.8048 13.77ZM11.8048 18.045C12.0748 18.045 12.2898 17.83 12.2898 17.56V15.7C12.2898 15.43 12.0748 15.215 11.8048 15.215C11.5348 15.215 11.3198 15.43 11.3198 15.7V17.555C11.3198 17.83 11.5398 18.045 11.8048 18.045ZM11.8048 22.315C12.0748 22.315 12.2898 22.1 12.2898 21.83V19.97C12.2898 19.7 12.0748 19.485 11.8048 19.485C11.5348 19.485 11.3198 19.7 11.3198 19.97V21.83C11.3198 22.1 11.5398 22.315 11.8048 22.315ZM11.8048 26.59C12.0748 26.59 12.2898 26.375 12.2898 26.105V24.25C12.2898 23.98 12.0748 23.765 11.8048 23.765C11.5348 23.765 11.3198 23.98 11.3198 24.25V26.105C11.3198 26.375 11.5398 26.59 11.8048 26.59ZM16.5798 15.535H20.1898C20.4598 15.535 20.6748 15.32 20.6748 15.05V11.44C20.6748 11.17 20.4598 10.955 20.1898 10.955H16.5798C16.3098 10.955 16.0948 11.17 16.0948 11.44V15.05C16.0948 15.32 16.3148 15.535 16.5798 15.535ZM17.0648 11.925H19.7048V14.565H17.0648V11.925Z" fill="#7F007F"/>
</svg>
