<svg width="221" height="19" viewBox="0 0 221 19" fill="none" xmlns="http://www.w3.org/2000/svg">
<path d="M16.9832 7.52921C16.8922 7.25306 16.6502 7.0518 16.3589 7.01011L11.4187 6.3022L9.20937 1.88674C9.07909 1.6264 8.81023 1.46155 8.5159 1.46155C8.22151 1.46155 7.95265 1.6264 7.82242 1.88674L5.61321 6.30215L0.672893 7.01005C0.381604 7.0518 0.13955 7.25306 0.0486063 7.52916C-0.0423378 7.80531 0.0335005 8.10842 0.244311 8.31105L3.81913 11.7474L2.9749 16.6007C2.92515 16.8868 3.0444 17.176 3.28254 17.3466C3.41725 17.4432 3.57682 17.4923 3.73715 17.4923C3.86022 17.4923 3.9838 17.4634 4.09696 17.4047L8.51584 15.1136L12.9347 17.4047C13.0485 17.4637 13.1732 17.4919 13.2967 17.4923C13.7233 17.4917 14.0689 17.1505 14.0689 16.7296C14.0689 16.671 14.0622 16.6139 14.0495 16.5592L13.2126 11.7475L16.7874 8.31105C16.9983 8.10842 17.0741 7.80531 16.9832 7.52921Z" fill="#007F7F"/>
<path d="M38.5291 7.52921C38.4381 7.25306 38.1961 7.0518 37.9048 7.01011L32.9646 6.3022L30.7553 1.88674C30.625 1.6264 30.3561 1.46155 30.0618 1.46155C29.7674 1.46155 29.4985 1.6264 29.3683 1.88674L27.1591 6.30215L22.2188 7.01005C21.9275 7.0518 21.6854 7.25306 21.5945 7.52916C21.5036 7.80531 21.5794 8.10842 21.7902 8.31105L25.365 11.7474L24.5208 16.6007C24.4711 16.8868 24.5903 17.176 24.8284 17.3466C24.9631 17.4432 25.1227 17.4923 25.2831 17.4923C25.4061 17.4923 25.5297 17.4634 25.6429 17.4047L30.0617 15.1136L34.4806 17.4047C34.5944 17.4637 34.7191 17.4919 34.8425 17.4923C35.2692 17.4917 35.6148 17.1505 35.6148 16.7296C35.6148 16.671 35.6081 16.6139 35.5954 16.5592L34.7585 11.7475L38.3333 8.31105C38.5442 8.10842 38.62 7.80531 38.5291 7.52921Z" fill="#007F7F"/>
<path d="M60.076 7.52921C59.985 7.25306 59.743 7.0518 59.4517 7.01011L54.5115 6.3022L52.3021 1.88674C52.1719 1.6264 51.903 1.46155 51.6087 1.46155C51.3143 1.46155 51.0454 1.6264 50.9152 1.88674L48.706 6.30215L43.7657 7.01005C43.4744 7.0518 43.2323 7.25306 43.1414 7.52916C43.0504 7.80531 43.1263 8.10842 43.3371 8.31105L46.9119 11.7474L46.0677 16.6007C46.0179 16.8868 46.1372 17.176 46.3753 17.3466C46.51 17.4432 46.6696 17.4923 46.8299 17.4923C46.953 17.4923 47.0766 17.4634 47.1897 17.4047L51.6086 15.1136L56.0275 17.4047C56.1413 17.4637 56.2659 17.4919 56.3894 17.4923C56.816 17.4917 57.1617 17.1505 57.1617 16.7296C57.1617 16.671 57.155 16.6139 57.1423 16.5592L56.3054 11.7475L59.8802 8.31105C60.0911 8.10842 60.1669 7.80531 60.076 7.52921Z" fill="#007F7F"/>
<path d="M81.6228 7.52921C81.5318 7.25306 81.2898 7.0518 80.9985 7.01011L76.0584 6.3022L73.849 1.88674C73.7187 1.6264 73.4499 1.46155 73.1555 1.46155C72.8612 1.46155 72.5923 1.6264 72.4621 1.88674L70.2529 6.30215L65.3125 7.01005C65.0213 7.0518 64.7792 7.25306 64.6883 7.52916C64.5973 7.80531 64.6731 8.10842 64.884 8.31105L68.4588 11.7474L67.6146 16.6007C67.5648 16.8868 67.684 17.176 67.9222 17.3466C68.0569 17.4432 68.2165 17.4923 68.3768 17.4923C68.4999 17.4923 68.6234 17.4634 68.7366 17.4047L73.1555 15.1136L77.5743 17.4047C77.6882 17.4637 77.8128 17.4919 77.9363 17.4923C78.3629 17.4917 78.7086 17.1505 78.7086 16.7296C78.7086 16.671 78.7018 16.6139 78.6892 16.5592L77.8523 11.7475L81.4271 8.31105C81.6379 8.10842 81.7138 7.80531 81.6228 7.52921Z" fill="#007F7F"/>
<path d="M97.836 13.3165V11.4185H93.598V10.4565L98.057 4.15147H99.149V10.3655H100.514V11.4185H99.149V13.3165H97.836ZM97.836 10.3655V5.75047H98.135L94.651 10.6905V10.3655H97.836ZM101.562 13.3165V11.7695H103.109V13.3165H101.562ZM107.13 13.4335C106.645 13.4335 106.159 13.3381 105.674 13.1475C105.189 12.9481 104.781 12.6881 104.452 12.3675L104.933 11.3405C105.254 11.6525 105.605 11.8908 105.986 12.0555C106.367 12.2115 106.753 12.2895 107.143 12.2895C107.975 12.2895 108.612 11.9991 109.054 11.4185C109.505 10.8291 109.73 9.9538 109.73 8.79247V7.68747H109.86C109.808 8.1468 109.661 8.5498 109.418 8.89647C109.175 9.24313 108.868 9.50747 108.495 9.68947C108.131 9.87147 107.719 9.96247 107.26 9.96247C106.723 9.96247 106.237 9.8368 105.804 9.58547C105.379 9.33413 105.046 8.98747 104.803 8.54547C104.569 8.10347 104.452 7.60513 104.452 7.05047C104.452 6.46113 104.582 5.94113 104.842 5.49047C105.102 5.03113 105.457 4.6758 105.908 4.42447C106.359 4.16447 106.879 4.03447 107.468 4.03447C108.612 4.03447 109.487 4.4288 110.094 5.21747C110.709 5.99747 111.017 7.10247 111.017 8.53247C111.017 9.58113 110.861 10.4695 110.549 11.1975C110.246 11.9255 109.804 12.4801 109.223 12.8615C108.642 13.2428 107.945 13.4335 107.13 13.4335ZM107.559 8.85747C107.923 8.85747 108.244 8.77947 108.521 8.62347C108.798 8.46747 109.015 8.2508 109.171 7.97347C109.327 7.68747 109.405 7.36247 109.405 6.99847C109.405 6.6258 109.327 6.3008 109.171 6.02347C109.015 5.73747 108.798 5.51647 108.521 5.36047C108.244 5.1958 107.923 5.11347 107.559 5.11347C107.195 5.11347 106.874 5.1958 106.597 5.36047C106.328 5.51647 106.116 5.73747 105.96 6.02347C105.804 6.3008 105.726 6.6258 105.726 6.99847C105.726 7.36247 105.804 7.68747 105.96 7.97347C106.116 8.2508 106.328 8.46747 106.597 8.62347C106.874 8.77947 107.195 8.85747 107.559 8.85747ZM115.575 13.4335C114.517 13.4335 113.694 13.2081 113.105 12.7575C112.515 12.3068 112.221 11.6785 112.221 10.8725C112.221 10.2311 112.416 9.70247 112.806 9.28647C113.196 8.8618 113.707 8.60613 114.34 8.51947V8.75347C113.768 8.63213 113.308 8.3678 112.962 7.96047C112.624 7.55313 112.455 7.05913 112.455 6.47847C112.455 5.7158 112.732 5.1178 113.287 4.68447C113.841 4.25113 114.604 4.03447 115.575 4.03447C116.554 4.03447 117.321 4.25113 117.876 4.68447C118.43 5.1178 118.708 5.7158 118.708 6.47847C118.708 7.05913 118.543 7.55747 118.214 7.97347C117.893 8.3808 117.451 8.63647 116.888 8.74047V8.51947C117.512 8.60613 118.01 8.8618 118.383 9.28647C118.755 9.70247 118.942 10.2311 118.942 10.8725C118.942 11.6785 118.647 12.3068 118.058 12.7575C117.468 13.2081 116.641 13.4335 115.575 13.4335ZM115.575 12.3675C116.277 12.3675 116.801 12.2375 117.148 11.9775C117.494 11.7088 117.668 11.3101 117.668 10.7815C117.668 10.2528 117.494 9.85847 117.148 9.59847C116.801 9.33847 116.277 9.20847 115.575 9.20847C114.873 9.20847 114.348 9.33847 114.002 9.59847C113.655 9.85847 113.482 10.2528 113.482 10.7815C113.482 11.3101 113.655 11.7088 114.002 11.9775C114.357 12.2375 114.881 12.3675 115.575 12.3675ZM115.575 8.14247C116.181 8.14247 116.641 8.00813 116.953 7.73947C117.273 7.46213 117.434 7.08513 117.434 6.60847C117.434 6.14047 117.273 5.77213 116.953 5.50347C116.641 5.2348 116.181 5.10047 115.575 5.10047C114.977 5.10047 114.517 5.2348 114.197 5.50347C113.876 5.77213 113.716 6.14047 113.716 6.60847C113.716 7.08513 113.876 7.46213 114.197 7.73947C114.517 8.00813 114.977 8.14247 115.575 8.14247ZM126.706 13.4335C126.056 13.4335 125.492 13.2991 125.016 13.0305C124.539 12.7531 124.171 12.3631 123.911 11.8605C123.651 11.3491 123.521 10.7425 123.521 10.0405C123.521 9.33847 123.651 8.73613 123.911 8.23347C124.171 7.72213 124.539 7.33213 125.016 7.06347C125.492 6.78613 126.056 6.64747 126.706 6.64747C127.356 6.64747 127.919 6.78613 128.396 7.06347C128.881 7.33213 129.254 7.72213 129.514 8.23347C129.782 8.73613 129.917 9.33847 129.917 10.0405C129.917 10.7425 129.782 11.3491 129.514 11.8605C129.254 12.3631 128.881 12.7531 128.396 13.0305C127.919 13.2991 127.356 13.4335 126.706 13.4335ZM126.706 12.4065C127.278 12.4065 127.733 12.2071 128.071 11.8085C128.409 11.4098 128.578 10.8205 128.578 10.0405C128.578 9.26047 128.409 8.67547 128.071 8.28547C127.733 7.8868 127.278 7.68747 126.706 7.68747C126.142 7.68747 125.692 7.8868 125.354 8.28547C125.016 8.67547 124.847 9.26047 124.847 10.0405C124.847 10.8205 125.011 11.4098 125.341 11.8085C125.679 12.2071 126.134 12.4065 126.706 12.4065ZM131.778 13.3165V7.77847H130.504V6.76447H132.142L131.778 7.10247V6.06247C131.778 5.29113 131.973 4.70613 132.363 4.30747C132.753 3.90013 133.325 3.69647 134.079 3.69647C134.261 3.69647 134.451 3.70947 134.651 3.73547C134.85 3.76147 135.015 3.8048 135.145 3.86547V4.93147C135.041 4.88813 134.911 4.85347 134.755 4.82747C134.607 4.7928 134.456 4.77547 134.3 4.77547C134.048 4.77547 133.832 4.82747 133.65 4.93147C133.468 5.0268 133.325 5.17413 133.221 5.37347C133.125 5.5728 133.078 5.82847 133.078 6.14047V7.02447L132.883 6.76447H134.859V7.77847H133.091V13.3165H131.778ZM142.271 13.4335C141.647 13.4335 141.049 13.3425 140.477 13.1605C139.905 12.9698 139.428 12.7011 139.047 12.3545L139.515 11.3275C139.94 11.6568 140.373 11.8995 140.815 12.0555C141.257 12.2115 141.729 12.2895 142.232 12.2895C142.873 12.2895 143.359 12.1551 143.688 11.8865C144.026 11.6178 144.195 11.2321 144.195 10.7295C144.195 10.2355 144.026 9.8628 143.688 9.61147C143.359 9.35147 142.869 9.22147 142.219 9.22147H140.802V8.12947H142.115C142.67 8.12947 143.112 7.9908 143.441 7.71347C143.77 7.42747 143.935 7.0418 143.935 6.55647C143.935 6.11447 143.783 5.77647 143.48 5.54247C143.177 5.2998 142.743 5.17847 142.18 5.17847C141.227 5.17847 140.39 5.51213 139.671 6.17947L139.216 5.15247C139.571 4.79713 140.022 4.52413 140.568 4.33347C141.114 4.13413 141.686 4.03447 142.284 4.03447C143.203 4.03447 143.926 4.2468 144.455 4.67147C144.984 5.08747 145.248 5.66813 145.248 6.41347C145.248 6.9768 145.088 7.4578 144.767 7.85647C144.455 8.25513 144.026 8.51947 143.48 8.64947V8.50647C144.13 8.61047 144.628 8.87047 144.975 9.28647C145.33 9.6938 145.508 10.2051 145.508 10.8205C145.508 11.6351 145.218 12.2765 144.637 12.7445C144.065 13.2038 143.276 13.4335 142.271 13.4335ZM147.336 13.3165V12.3155L150.482 9.02647C150.889 8.6018 151.193 8.20313 151.392 7.83047C151.591 7.4578 151.691 7.07213 151.691 6.67347C151.691 6.17947 151.535 5.8068 151.223 5.55547C150.92 5.30413 150.478 5.17847 149.897 5.17847C149.438 5.17847 149.004 5.2608 148.597 5.42547C148.198 5.59013 147.813 5.84147 147.44 6.17947L146.972 5.15247C147.336 4.81447 147.787 4.5458 148.324 4.34647C148.87 4.13847 149.446 4.03447 150.053 4.03447C151.006 4.03447 151.739 4.25113 152.25 4.68447C152.77 5.1178 153.03 5.73747 153.03 6.54347C153.03 7.11547 152.891 7.6658 152.614 8.19447C152.337 8.71447 151.921 9.2518 151.366 9.80647L148.649 12.5495V12.1855H153.407V13.3165H147.336ZM158.454 13.3165V8.38947C158.454 8.1208 158.445 7.85213 158.428 7.58347C158.419 7.30613 158.402 7.03313 158.376 6.76447H159.65L159.793 8.45447H159.585C159.671 8.04713 159.819 7.70913 160.027 7.44047C160.235 7.1718 160.486 6.97247 160.781 6.84247C161.084 6.71247 161.4 6.64747 161.73 6.64747C161.868 6.64747 161.985 6.65613 162.081 6.67347C162.176 6.68213 162.271 6.69947 162.367 6.72547L162.354 7.89547C162.206 7.8348 162.076 7.80013 161.964 7.79147C161.86 7.77413 161.73 7.76547 161.574 7.76547C161.192 7.76547 160.867 7.85213 160.599 8.02547C160.33 8.19013 160.126 8.41547 159.988 8.70147C159.849 8.98747 159.78 9.29513 159.78 9.62447V13.3165H158.454ZM166.32 13.4335C165.263 13.4335 164.431 13.1345 163.824 12.5365C163.217 11.9385 162.914 11.1108 162.914 10.0535C162.914 9.3688 163.044 8.7708 163.304 8.25947C163.573 7.74813 163.941 7.3538 164.409 7.07647C164.886 6.79047 165.436 6.64747 166.06 6.64747C166.675 6.64747 167.191 6.77747 167.607 7.03747C168.023 7.29747 168.339 7.6658 168.556 8.14247C168.773 8.61047 168.881 9.16513 168.881 9.80647V10.2225H163.941V9.46847H167.984L167.763 9.63747C167.763 8.98747 167.616 8.4848 167.321 8.12947C167.035 7.76547 166.619 7.58347 166.073 7.58347C165.466 7.58347 164.998 7.7958 164.669 8.22047C164.34 8.63647 164.175 9.2128 164.175 9.94947V10.0795C164.175 10.8508 164.361 11.4315 164.734 11.8215C165.115 12.2115 165.653 12.4065 166.346 12.4065C166.727 12.4065 167.083 12.3545 167.412 12.2505C167.75 12.1378 168.071 11.9558 168.374 11.7045L168.803 12.6015C168.5 12.8701 168.131 13.0781 167.698 13.2255C167.265 13.3641 166.805 13.4335 166.32 13.4335ZM172.223 13.3165L169.415 6.76447H170.819L173.029 12.2375H172.652L174.901 6.76447H176.24L173.419 13.3165H172.223ZM177.281 13.3165V6.76447H178.594V13.3165H177.281ZM177.177 5.39947V4.03447H178.698V5.39947H177.177ZM183.548 13.4335C182.49 13.4335 181.658 13.1345 181.052 12.5365C180.445 11.9385 180.142 11.1108 180.142 10.0535C180.142 9.3688 180.272 8.7708 180.532 8.25947C180.8 7.74813 181.169 7.3538 181.637 7.07647C182.113 6.79047 182.664 6.64747 183.288 6.64747C183.903 6.64747 184.419 6.77747 184.835 7.03747C185.251 7.29747 185.567 7.6658 185.784 8.14247C186 8.61047 186.109 9.16513 186.109 9.80647V10.2225H181.169V9.46847H185.212L184.991 9.63747C184.991 8.98747 184.843 8.4848 184.549 8.12947C184.263 7.76547 183.847 7.58347 183.301 7.58347C182.694 7.58347 182.226 7.7958 181.897 8.22047C181.567 8.63647 181.403 9.2128 181.403 9.94947V10.0795C181.403 10.8508 181.589 11.4315 181.962 11.8215C182.343 12.2115 182.88 12.4065 183.574 12.4065C183.955 12.4065 184.31 12.3545 184.64 12.2505C184.978 12.1378 185.298 11.9558 185.602 11.7045L186.031 12.6015C185.727 12.8701 185.359 13.0781 184.926 13.2255C184.492 13.3641 184.033 13.4335 183.548 13.4335ZM189.307 13.3165L186.824 6.76447H188.189L190.126 12.2245H189.788L191.777 6.76447H192.791L194.767 12.2245H194.442L196.379 6.76447H197.692L195.196 13.3165H194L191.946 7.75247H192.557L190.529 13.3165H189.307ZM201.024 13.4335C200.478 13.4335 199.975 13.3641 199.516 13.2255C199.056 13.0868 198.675 12.8918 198.372 12.6405L198.775 11.7435C199.095 11.9861 199.451 12.1681 199.841 12.2895C200.231 12.4108 200.629 12.4715 201.037 12.4715C201.513 12.4715 201.873 12.3891 202.116 12.2245C202.358 12.0511 202.48 11.8171 202.48 11.5225C202.48 11.2971 202.402 11.1151 202.246 10.9765C202.098 10.8378 201.851 10.7338 201.505 10.6645L200.257 10.4175C199.702 10.2961 199.282 10.0881 198.996 9.79347C198.71 9.4988 198.567 9.1218 198.567 8.66247C198.567 8.27247 198.671 7.9258 198.879 7.62247C199.095 7.31913 199.399 7.0808 199.789 6.90747C200.187 6.73413 200.651 6.64747 201.18 6.64747C201.665 6.64747 202.116 6.7168 202.532 6.85547C202.948 6.99413 203.294 7.19347 203.572 7.45347L203.156 8.32447C202.887 8.09913 202.584 7.9258 202.246 7.80447C201.908 7.67447 201.565 7.60947 201.219 7.60947C200.733 7.60947 200.374 7.70047 200.14 7.88247C199.906 8.06447 199.789 8.3028 199.789 8.59747C199.789 8.8228 199.858 9.00913 199.997 9.15647C200.144 9.29513 200.374 9.40347 200.686 9.48147L201.934 9.72847C202.523 9.8498 202.965 10.0491 203.26 10.3265C203.554 10.6038 203.702 10.9765 203.702 11.4445C203.702 11.8518 203.589 12.2071 203.364 12.5105C203.138 12.8138 202.826 13.0435 202.428 13.1995C202.029 13.3555 201.561 13.4335 201.024 13.4335Z" fill="#007F7F"/>
</svg>
