<svg width="30" height="28" viewBox="0 0 30 28" fill="none" xmlns="http://www.w3.org/2000/svg">
<path d="M3 13.3334C4.10457 13.3334 5 12.4379 5 11.3334C5 10.2288 4.10457 9.33337 3 9.33337C1.89543 9.33337 1 10.2288 1 11.3334C1 12.4379 1.89543 13.3334 3 13.3334Z" stroke="#7F007F" stroke-width="2" stroke-miterlimit="10"/>
<path d="M4.41357 9.92001L9.58691 4.74667" stroke="#7F007F" stroke-width="2" stroke-miterlimit="10"/>
<path d="M17.5869 9.92001L12.4136 4.74667" stroke="#7F007F" stroke-width="2" stroke-miterlimit="10"/>
<path d="M20.4136 9.92001L25.5869 4.74667" stroke="#7F007F" stroke-width="2" stroke-miterlimit="10"/>
<path d="M11 5.33334C12.1046 5.33334 13 4.43791 13 3.33334C13 2.22877 12.1046 1.33334 11 1.33334C9.89543 1.33334 9 2.22877 9 3.33334C9 4.43791 9.89543 5.33334 11 5.33334Z" stroke="#7F007F" stroke-width="2" stroke-miterlimit="10"/>
<path d="M27 5.33334C28.1046 5.33334 29 4.43791 29 3.33334C29 2.22877 28.1046 1.33334 27 1.33334C25.8954 1.33334 25 2.22877 25 3.33334C25 4.43791 25.8954 5.33334 27 5.33334Z" stroke="#7F007F" stroke-width="2" stroke-miterlimit="10"/>
<path d="M19 13.3334C20.1046 13.3334 21 12.4379 21 11.3334C21 10.2288 20.1046 9.33337 19 9.33337C17.8954 9.33337 17 10.2288 17 11.3334C17 12.4379 17.8954 13.3334 19 13.3334Z" stroke="#7F007F" stroke-width="2" stroke-miterlimit="10"/>
<path d="M5 20H1V26.6667H5V20Z" stroke="#7F007F" stroke-width="2" stroke-miterlimit="10" stroke-linecap="square"/>
<path d="M13 12H9V26.6667H13V12Z" stroke="#7F007F" stroke-width="2" stroke-miterlimit="10" stroke-linecap="square"/>
<path d="M21 20H17V26.6667H21V20Z" stroke="#7F007F" stroke-width="2" stroke-miterlimit="10" stroke-linecap="square"/>
<path d="M29 12H25V26.6667H29V12Z" stroke="#7F007F" stroke-width="2" stroke-miterlimit="10" stroke-linecap="square"/>
</svg>
