<svg width="32" height="32" viewBox="0 0 32 32" fill="none" xmlns="http://www.w3.org/2000/svg">
<path d="M23 9.00001V7.47001C23.0002 7.22756 22.9472 6.98803 22.8446 6.76834C22.742 6.54866 22.5924 6.3542 22.4064 6.1987C22.2204 6.04321 22.0025 5.93049 21.7681 5.8685C21.5337 5.80652 21.2886 5.7968 21.05 5.84001L7.05 8.38501C5.75 8.62501 4.5 9.66501 4.5 11" stroke="#7F007F" stroke-width="2" stroke-linecap="round" stroke-linejoin="round"/>
<path d="M26.5 15V11C26.5 10.4696 26.2893 9.96086 25.9142 9.58579C25.5391 9.21071 25.0304 9 24.5 9H6.5C5.96957 9 5.46086 9.21071 5.08579 9.58579C4.71071 9.96086 4.5 10.4696 4.5 11V24.5C4.5 25.0304 4.71071 25.5391 5.08579 25.9142C5.46086 26.2893 5.96957 26.5 6.5 26.5H24.5C25.0304 26.5 25.5391 26.2893 25.9142 25.9142C26.2893 25.5391 26.5 25.0304 26.5 24.5V20.5" stroke="#7F007F" stroke-width="2" stroke-linecap="round" stroke-linejoin="round"/>
<path d="M21 20.5H27C27.2652 20.5 27.5196 20.3946 27.7071 20.2071C27.8946 20.0196 28 19.7652 28 19.5V16C28 15.7348 27.8946 15.4804 27.7071 15.2929C27.5196 15.1054 27.2652 15 27 15H21L19.5 17.75L21 20.5Z" stroke="#7F007F" stroke-width="2" stroke-linecap="round" stroke-linejoin="round"/>
<path d="M23 18.75C23.5523 18.75 24 18.3023 24 17.75C24 17.1977 23.5523 16.75 23 16.75C22.4477 16.75 22 17.1977 22 17.75C22 18.3023 22.4477 18.75 23 18.75Z" fill="#7F007F"/>
</svg>
