<svg width="15" height="15" viewBox="0 0 15 15" fill="none" xmlns="http://www.w3.org/2000/svg">
<path d="M14.8109 13.9256L10.5072 9.61876C11.3557 8.60124 11.866 7.30091 11.866 5.88068C11.866 2.64059 9.20689 0.00610352 5.93606 0.00610352C2.66523 0.00610352 0 2.64367 0 5.88375C0 9.12384 2.65908 11.7583 5.92991 11.7583C7.3194 11.7583 8.59822 11.2818 9.61266 10.4857L13.9318 14.8047C14.1838 15.0568 14.5589 15.0568 14.8109 14.8047C15.063 14.5527 15.063 14.1776 14.8109 13.9256ZM1.26037 5.88375C1.26037 3.33841 3.3569 1.26955 5.92991 1.26955C8.50292 1.26955 10.5994 3.33841 10.5994 5.88375C10.5994 8.42909 8.50292 10.498 5.92991 10.498C3.3569 10.498 1.26037 8.42602 1.26037 5.88375Z" fill="#007F7F"/>
</svg>
