<svg width="33" height="33" viewBox="0 0 33 33" fill="none" xmlns="http://www.w3.org/2000/svg">
<rect opacity="0.25" x="0.996582" y="0.5" width="31.0069" height="31.0069" rx="15.5034" stroke="white"/>
<path fill-rule="evenodd" clip-rule="evenodd" d="M13.6276 21.3379H11.1655V13.9517H13.6276V21.3379Z" fill="white"/>
<path fill-rule="evenodd" clip-rule="evenodd" d="M12.3892 12.3102H12.3753C11.6405 12.3102 11.1655 11.7628 11.1655 11.0788C11.1655 10.3802 11.655 9.84814 12.4037 9.84814C13.1523 9.84814 13.6134 10.3802 13.6276 11.0788C13.6276 11.7628 13.1523 12.3102 12.3892 12.3102Z" fill="white"/>
<path fill-rule="evenodd" clip-rule="evenodd" d="M22.655 21.3377H20.2357V17.4768C20.2357 16.507 19.8856 15.8453 19.0097 15.8453C18.3413 15.8453 17.9432 16.2914 17.7683 16.7223C17.7044 16.8767 17.6886 17.0919 17.6886 17.3075V21.3379H15.2689C15.2689 21.3379 15.3008 14.7985 15.2689 14.1213H17.6886V15.1435C18.0098 14.6521 18.5849 13.9517 19.8694 13.9517C21.4615 13.9517 22.6551 14.9833 22.6551 17.1999L22.655 21.3377Z" fill="white"/>
</svg>
