<svg width="222" height="39" viewBox="0 0 222 39" fill="none" xmlns="http://www.w3.org/2000/svg">
<path d="M2.82775 1.03179L15.3677 1C15.3677 1 16.1306 1.11125 16.3531 1.22251C16.5915 1.34966 17.0207 1.71521 17.1796 1.93772C17.3544 2.20791 17.6246 3.14562 17.6246 3.14562V17.72H3.05026C3.05026 17.72 2.16023 17.3067 1.89004 17.0524C1.74699 16.9253 1.42912 16.5121 1.33376 16.3372C1.22251 16.1306 1 15.4631 1 15.4631V3.03437C1 3.03437 1.07947 2.36684 1.22251 2.16023C1.31787 2.00129 1.57217 1.47681 1.82646 1.33376C2.09665 1.19072 2.82775 1.03179 2.82775 1.03179ZM7.94546 4.52836C7.64348 4.54425 7.02364 4.62372 6.73756 4.75087C6.61041 4.79855 6.40379 4.98927 6.29254 5.08463C6.10182 5.24357 5.67269 5.54554 5.52965 5.75216C5.4025 5.92699 5.25946 6.32433 5.19589 6.51505C5.13231 6.72166 5.22767 7.23025 5.08463 7.38919C4.95748 7.54812 4.48068 7.50044 4.32174 7.6117C4.01977 7.78653 3.49528 8.29512 3.33635 8.5971C3.2092 8.85139 3.12973 9.42356 3.11384 9.69375C3.09794 9.96394 3.12973 10.5361 3.22509 10.7904C3.28866 10.9811 3.52707 11.3149 3.67011 11.4579C3.92441 11.7281 4.87802 12.3321 4.87802 12.3321H6.30843H6.64219H7.08721H7.6117H7.94546H8.16797H8.61299H9.04211H9.26462H9.37588H9.8209H10.2659H10.7109H11.156H11.4897H11.7122H11.9029H12.5705H13.4446C13.4446 12.3321 14.128 12.2367 14.3188 12.1096C14.6048 11.9347 15.0499 11.4102 15.1929 11.1242C15.2406 11.0288 15.2883 10.7904 15.3042 10.6791C15.32 10.5679 15.32 10.3454 15.3042 10.2341C15.2565 9.94804 15.1134 9.39177 14.9704 9.13748C14.875 8.94675 14.5889 8.61299 14.4141 8.46995C14.2393 8.3428 13.7625 8.31101 13.6512 8.13618C13.54 7.97725 13.5877 7.43687 13.54 7.26204C13.4605 7.00775 13.1744 6.57862 12.9837 6.3879C12.8248 6.21307 12.4433 5.91109 12.2208 5.83163C11.9347 5.73627 11.7281 5.67269 11.2354 5.83163C11.1242 5.86341 10.7904 6.08592 10.6791 6.05414C10.5838 6.02235 10.5202 5.79984 10.4566 5.72037C10.2818 5.51376 9.91626 5.10052 9.69375 4.95748C9.51892 4.84623 9.12158 4.68729 8.93086 4.62372C8.69246 4.56015 8.19976 4.51247 7.94546 4.52836Z" fill="#7F007F" stroke="#7F007F"/>
<path d="M6.37204 12.3322L5.30718 11.0449L5.2436 9.47141C5.2436 9.47141 5.11645 9.39195 5.06877 9.34427C5.02109 9.29659 4.95752 9.15354 4.95752 9.08997C4.95752 9.0105 4.98931 8.86746 5.03699 8.81978C5.08467 8.75621 5.21182 8.67674 5.29128 8.66085C5.33896 8.64495 5.46611 8.64495 5.51379 8.66085C5.59326 8.69263 5.75219 8.81978 5.78398 8.91514C5.81577 8.97872 5.79988 9.10586 5.79988 9.16944C5.78398 9.21712 5.75219 9.32837 5.72041 9.37605C5.67273 9.42373 5.51379 9.53499 5.51379 9.53499L5.56147 11.0449L6.7058 12.2846L6.37204 12.3322Z" fill="#7F007F" stroke="#7F007F"/>
<path d="M7.81821 12.3322V11.7441L6.54673 10.4885V8.23166C6.54673 8.23166 6.29243 8.07272 6.24475 7.99326C6.21296 7.94557 6.16528 7.80253 6.16528 7.73896C6.16528 7.65949 6.19707 7.59592 6.26064 7.53234C6.30832 7.48466 6.46726 7.32573 6.53083 7.30983C6.6103 7.29394 6.78513 7.32573 6.8646 7.37341C6.91228 7.3893 6.95996 7.46877 6.99175 7.51645C7.03943 7.59592 7.11889 7.77075 7.103 7.86611C7.08711 7.94558 6.91228 8.15219 6.91228 8.15219L6.83281 8.21576V10.3614L7.81821 11.2196V6.78535C7.81821 6.78535 7.64338 6.67409 7.61159 6.61052C7.56391 6.56284 7.50034 6.43569 7.50034 6.35622C7.48444 6.30854 7.48444 6.1814 7.51623 6.13372C7.53212 6.08603 7.62749 6.02246 7.65927 6.00657C7.69106 5.97478 7.78642 5.94299 7.8341 5.9271C7.88178 5.91121 7.96125 5.86353 8.00893 5.87942C8.05661 5.87942 8.12018 5.94299 8.15197 5.95889C8.21555 5.99067 8.35859 6.05425 8.39037 6.11782C8.43805 6.1814 8.45395 6.34033 8.43805 6.40391C8.42216 6.48337 8.27912 6.67409 8.27912 6.67409L8.0884 6.78535V9.01044L9.20094 8.1363V7.3893L8.91486 7.23037C8.91486 7.23037 8.8195 7.02375 8.83539 6.96018C8.85129 6.8966 8.93075 6.78535 8.96254 6.73767C8.99433 6.68999 9.26452 6.56284 9.32809 6.57873C9.39166 6.59463 9.56649 6.70588 9.59828 6.75356C9.61417 6.80124 9.70954 7.00786 9.70954 7.05554C9.69364 7.11911 9.59828 7.32573 9.59828 7.32573L9.47113 7.37341L9.43935 8.21576L8.13608 9.37599L8.16786 12.2686L7.81821 12.3322Z" fill="#7F007F" stroke="#7F007F"/>
<path d="M9.21692 12.2366V10.1704L9.82087 9.50288V9.10554L9.93213 8.88303C9.93213 8.88303 10.0434 8.81946 10.0911 8.81946C10.1228 8.81946 10.2023 8.81946 10.25 8.81946C10.2818 8.81946 10.3295 8.81946 10.3613 8.81946C10.4089 8.83535 10.4884 8.88303 10.5202 8.93071C10.552 8.9625 10.6155 9.05786 10.6314 9.10554C10.6473 9.15322 10.6314 9.26448 10.6314 9.31216C10.6314 9.35984 10.5838 9.50288 10.5838 9.50288C10.5838 9.50288 10.4089 9.64592 10.3454 9.64592C10.2818 9.66181 10.107 9.58235 10.107 9.58235L9.43943 10.2658L9.47122 12.3319L9.21692 12.2366Z" fill="#7F007F" stroke="#7F007F"/>
<path d="M11.5693 7.50037C11.5057 7.50037 11.3945 7.54805 11.3468 7.57983C11.315 7.59573 11.2355 7.6593 11.2197 7.69109C11.2038 7.73877 11.2197 7.83413 11.2197 7.88181C11.2197 7.92949 11.1879 8.04075 11.2197 8.07253C11.2673 8.13611 11.5057 8.23147 11.5057 8.23147V10.0592L10.5521 10.8698V12.2525H10.8064L10.7746 10.9334L11.6488 10.1864V8.31093L11.8554 8.19968C11.8554 8.19968 11.919 8.02485 11.919 7.96128C11.919 7.9136 11.9349 7.83413 11.919 7.78645C11.9031 7.73877 11.8236 7.6593 11.7759 7.62751C11.7282 7.59573 11.6329 7.51626 11.5693 7.50037Z" fill="#7F007F" stroke="#7F007F"/>
<path d="M11.4738 12.3318L12.7929 11.0285V10.1067C12.7929 10.1067 12.6181 9.96368 12.5863 9.9001C12.5545 9.82064 12.5068 9.64581 12.5386 9.55045C12.5545 9.48687 12.6658 9.39151 12.7134 9.35972C12.7611 9.32794 12.8565 9.28026 12.9042 9.28026C12.936 9.28026 13.0154 9.26436 13.0472 9.28026C13.0949 9.29615 13.1744 9.32794 13.2061 9.35972C13.2697 9.4233 13.3492 9.56634 13.3651 9.64581C13.3651 9.70938 13.3174 9.83653 13.2856 9.9001C13.2538 9.94778 13.1108 10.059 13.1108 10.059L13.0154 10.1226V11.0444L11.8075 12.3318H11.4738Z" fill="#7F007F" stroke="#7F007F"/>
<path d="M33.3117 1.6676C33.3117 1.6676 35.2666 1.74707 35.4573 1.82654C35.5845 1.87422 35.9023 2.09673 35.9023 2.09673L36.395 2.54175L36.8877 3.25695L36.999 3.92448L37.1102 16.2419C37.1102 16.2419 37.0625 16.8618 36.999 17.0048C36.9036 17.2432 36.7765 17.5611 36.5698 17.72C35.8387 18.324 35.3937 18.2763 35.3937 18.2763L34.5196 18.3876H33.8521H30.0058H29.1317H23.7438L20.5015 18.4353V10.2978V9.31238L20.3903 4.03573V3.70197C20.3903 3.70197 20.5333 3.27285 20.6128 3.1457C20.6922 3.00266 20.8989 2.76425 20.9942 2.653C21.1055 2.50996 21.3439 2.20798 21.4869 2.09673C21.6617 1.96958 22.3134 1.76296 22.3134 1.76296L33.3117 1.6676ZM27.9715 5.29132C27.8602 5.339 27.6218 5.43436 27.5264 5.51383C27.3516 5.64098 27.0814 5.99064 26.9702 6.18136C26.8589 6.35619 26.6841 6.75352 26.6364 6.94425C26.5887 7.21444 26.5569 7.7866 26.6364 8.0409C26.7477 8.39055 27.1927 9.05808 27.5105 9.2488C27.7648 9.40774 28.7185 9.47131 28.7185 9.47131V9.69382L27.6218 9.80508L26.8589 10.2501L26.3026 10.8064C26.3026 10.8064 25.651 10.2978 24.9835 10.1388C23.9822 9.91633 23.4418 10.0276 23.4418 10.0276L23.7756 9.80508C23.7756 9.80508 24.6179 9.88455 24.8722 9.80508C25.0947 9.72561 25.4762 9.42363 25.6351 9.2488C25.7305 9.15344 25.9053 8.93093 25.9689 8.80379C26.0166 8.70843 26.0642 8.47002 26.0801 8.35877C26.096 8.10447 26.0483 7.59588 25.9689 7.37337C25.9053 7.18265 25.6828 6.84889 25.5239 6.70584C25.3808 6.5787 25.0471 6.43565 24.8563 6.37208C24.6179 6.30851 24.1093 6.21314 23.8709 6.26083C23.6484 6.30851 23.108 6.70584 23.108 6.70584C22.9491 6.8171 22.6471 7.08729 22.5518 7.26212C22.4564 7.46873 22.4246 7.92964 22.4405 8.13626C22.4723 8.39056 22.6153 8.91504 22.7743 9.12166C22.9332 9.34417 23.6484 9.78918 23.6484 9.78918C23.6484 9.78918 22.6154 10.3931 22.3293 10.6633C22.0909 10.9017 21.6935 11.458 21.5664 11.76C21.471 11.9666 21.3439 12.6341 21.3439 12.6341V13.3175V13.5401L21.4551 13.6513H35.9023V12.8884C35.9023 12.8884 35.9341 12.3004 35.9023 12.1255C35.8546 11.8871 35.6957 11.4421 35.5686 11.2514C35.4573 11.0607 35.1553 10.7428 35.0123 10.5839C34.9328 10.5044 34.6785 10.2501 34.6785 10.2501L33.9156 9.91633H33.1527V9.69382C33.1527 9.69382 33.8362 9.48721 34.0269 9.36006C34.2176 9.2488 34.5673 8.97861 34.6944 8.80379C34.7739 8.67664 34.8692 8.39055 34.9169 8.24751C34.9646 8.08858 35.0441 7.75482 35.0282 7.57999C34.9964 7.37337 34.8216 6.97603 34.6944 6.8171C34.5673 6.62638 34.2335 6.27672 34.0269 6.14957C33.9315 6.086 33.6931 6.05421 33.5819 6.03832C33.3911 6.02242 32.9938 5.99064 32.819 6.03832C32.5488 6.10189 32.0084 6.37208 31.8336 6.59459C31.6746 6.76942 31.5475 7.24622 31.4998 7.46873C31.4521 7.73892 31.3886 8.19983 31.4998 8.45413C31.5634 8.59717 31.8336 8.88325 31.9448 9.0104C32.0402 9.12166 32.1515 9.2647 32.2786 9.34417C32.4693 9.45542 33.264 9.56667 33.264 9.56667L33.1527 9.90044H32.819L32.2627 10.0117L31.7064 10.2342L31.1502 10.568L31.0389 10.4567L30.0535 9.78918L28.7343 9.67793V9.45542C28.7343 9.45542 28.9728 9.66204 29.9423 9.12166C30.1012 9.0263 30.5303 8.40645 30.6098 8.24751C30.6734 8.10447 30.8005 7.85018 30.8323 7.69124C30.88 7.45284 30.88 6.94425 30.8323 6.70584C30.8005 6.5628 30.6893 6.27672 30.6098 6.14957C30.4985 5.95885 30.2283 5.62509 30.0535 5.48204C29.8787 5.3549 29.4813 5.19596 29.2906 5.14828C29.0999 5.11649 28.7185 5.13239 28.5277 5.14828C28.3847 5.19596 28.1145 5.24364 27.9715 5.29132Z" fill="#007F7F" stroke="#007F7F"/>
<path d="M25.3328 13.7622C25.2216 13.0311 25.2375 12.6814 25.3328 12.3318C25.3805 12.1728 25.5077 11.8708 25.5712 11.7278C25.6348 11.6007 25.762 11.3464 25.8414 11.2351C25.9209 11.0921 26.1752 10.6788 26.1752 10.6788L26.35 10.7265C26.35 10.7265 25.9209 11.3464 25.8255 11.5689C25.6984 11.8232 25.5077 12.3794 25.4759 12.6655C25.4441 12.9357 25.5554 13.7622 25.5554 13.7622H25.3328Z" fill="#007F7F" stroke="#007F7F"/>
<path d="M31.1656 10.5675L31.4517 10.9172L31.7219 11.394L31.9603 11.8867L32.1669 12.6813V13.3648V13.6508H32.3259V12.9674L32.2146 12.3317L32.008 11.6165L31.8014 11.1715L31.4041 10.5675H31.1656Z" fill="#007F7F" stroke="#007F7F"/>
<path d="M4.48046 19.929H17.2429H17.5767H17.7992H18.8482V34.6146C18.8482 34.6146 18.8482 34.9324 17.974 35.886C17.3542 36.5536 16.5913 36.6489 16.5913 36.6489L3.92419 36.6807C3.92419 36.6807 3.4156 36.3152 3.25666 36.2039C3.11362 36.1085 2.87522 35.8384 2.76396 35.7112C2.70039 35.6476 2.60503 35.5046 2.54145 35.441C2.49377 35.3774 2.36663 35.2344 2.31894 35.1708C2.28716 35.1231 2.20769 34.9483 2.20769 34.9483L2.09644 34.6781V34.5192V22.2971L2.20769 21.7408C2.20769 21.7408 2.27126 21.4706 2.31894 21.3594C2.36663 21.2322 2.50967 21.0256 2.58913 20.9144C2.70039 20.7713 2.93879 20.517 3.08183 20.4217C3.24077 20.2945 3.79704 20.0402 3.79704 20.0402L4.48046 19.929ZM10.0432 22.7898C9.83657 22.8375 9.2803 23.1235 9.2803 23.1235L8.83528 23.3461L7.62737 24.0136L6.64198 24.5699L5.76783 25.1261C5.76783 25.1261 5.46586 25.5076 5.43407 25.6824C5.21156 27.0969 5.32282 28.2095 5.32282 28.2095C5.32282 28.2095 5.3705 31.0862 5.43407 31.1816C5.54533 31.3564 6.1016 31.7378 6.1016 31.7378L8.2949 33.057L8.85117 33.3908C8.85117 33.3908 9.74121 33.8676 10.0591 33.947C10.218 33.9788 10.5677 33.9947 10.7266 33.947C10.8855 33.8993 11.1398 33.8199 11.2829 33.7245C11.4736 33.5974 12.0458 33.2795 12.0458 33.2795L12.8087 32.8345C12.8087 32.8345 14.3662 31.9127 14.9066 31.5153C15.0496 31.4041 15.1768 31.2451 15.2404 31.0703C15.2563 31.0226 15.3516 30.7365 15.3516 30.7365V26.2228C15.3516 26.2228 15.3198 25.7142 15.2404 25.5553C15.1927 25.444 14.9066 25.2215 14.9066 25.2215L14.5728 24.999L13.1424 24.1248L11.1398 23.0123C11.1398 23.0123 10.822 22.8216 10.6948 22.7898C10.5359 22.7421 10.2021 22.758 10.0432 22.7898ZM2.22358 34.2331V34.4556L2.44609 34.3444L2.22358 34.2331Z" fill="#007F7F" stroke="#007F7F"/>
<path d="M10.0912 25.0942C10.2024 25.0783 10.6157 25.0783 10.7587 25.0942C10.87 25.1101 11.0925 25.1737 11.2037 25.2054C11.3627 25.2531 11.7123 25.3485 11.8713 25.428C12.0302 25.5074 12.6977 26.0796 12.809 26.1908C12.952 26.3498 13.3017 26.7471 13.3017 26.7471L12.5865 27.2398L12.0938 27.51L11.4898 26.9537L11.1084 26.7312L10.8859 26.62C10.8859 26.62 10.87 26.62 10.5521 26.62C10.2978 26.62 10.1071 26.5882 9.99583 26.62C9.93225 26.6518 9.72564 26.7312 9.72564 26.7312L9.39187 26.9537L9.04222 27.3034L8.81971 27.6372C8.81971 27.6372 8.72435 27.9709 8.70845 28.1299C8.69256 28.2729 8.77203 28.6384 8.81971 28.7974C8.86739 28.9563 9.15347 29.3537 9.15347 29.3537C9.15347 29.3537 9.47134 29.6397 9.64617 29.7351C9.80511 29.8146 10.3137 29.9576 10.3137 29.9576C10.3137 29.9576 10.5998 30.0053 10.7587 29.9576C10.9177 29.9099 11.0766 29.9417 11.2037 29.8464C11.315 29.7669 11.76 29.2901 11.76 29.2901L12.4275 29.7351L13.0315 30.1165L12.65 30.6092L12.2686 30.8794L11.7759 31.1496C11.7759 31.1496 11.2037 31.3403 11.013 31.3721C10.7428 31.4198 10.2024 31.4357 9.91636 31.3721C9.63028 31.3086 9.074 31.0702 8.81971 30.9271C8.56541 30.7841 8.18397 30.4503 7.99325 30.2119C7.81842 30.0053 7.50055 29.4808 7.43697 29.2265C7.3734 28.9245 7.29393 28.3206 7.32572 28.0186C7.35751 27.7325 7.51644 27.1604 7.65948 26.9219C7.80252 26.6835 8.15218 26.1908 8.37469 25.9842C8.54952 25.8253 9.13758 25.428 9.13758 25.428C9.13758 25.428 9.55081 25.2531 9.69385 25.2054C9.78921 25.1737 9.94815 25.1101 10.0912 25.0942Z" fill="#007F7F" stroke="#007F7F"/>
<path d="M14.3186 28.2735V27.8761L13.9849 27.8125L14.0008 27.4788H13.6193L13.6034 27.7808H13.2538V27.4629H12.8723L12.8405 27.8443L12.4114 27.8602V28.2576H12.8246V28.6549H12.3955L12.4114 29.0363H12.8246V29.3701H13.2538V29.1158L13.6193 29.1317V29.3701H14.0008V29.0999L14.3345 29.084V28.6867L14.0484 28.6549L14.0325 28.2576L14.3186 28.2735ZM13.3968 28.639C13.0948 28.639 13.0948 28.1781 13.3968 28.1781C13.6829 28.1781 13.6829 28.639 13.3968 28.639Z" fill="#007F7F" stroke="#007F7F"/>
<path d="M21.3754 21.248H35.6318C35.6318 21.248 36.5378 21.248 37.2212 22.0109C37.3483 22.154 37.5708 22.456 37.6662 22.6149C37.7775 22.8215 38 23.489 38 23.489V35.8065C38 35.8065 37.7934 36.4899 37.6662 36.6806C37.555 36.8873 37.253 37.2528 37.0623 37.3958C36.7921 37.6025 35.8543 37.9521 35.8543 37.9521H23.6322C23.6322 37.9521 22.9488 37.7455 22.7581 37.6184C22.5197 37.4753 22.0906 37.1257 21.9316 36.9031C21.725 36.6171 21.3754 35.584 21.3754 35.584V21.248ZM23.2508 25.6505L22.8058 26.7472L23.7912 27.6213L23.5687 28.4955L22.3608 28.718L22.1383 28.8293V29.8146L22.3608 29.9259L22.917 30.0372L23.2508 30.1484L23.5846 30.2597L23.8071 30.8159V31.261L23.3621 31.5947L22.8058 32.0397L23.0283 32.596L23.4733 33.1523L24.7925 32.596L25.1262 33.041L25.3487 33.2635L24.9037 34.694L26.0004 35.2502L26.9858 34.1536L27.7487 34.3761L27.9712 35.8065L28.4162 35.9178H28.6387L28.75 35.8065V33.1682L28.6387 32.9457C28.6387 32.9457 27.5738 32.8344 27.2401 32.7073C26.8745 32.5642 26.1434 32.151 25.8891 31.849C25.6189 31.5153 25.2057 30.7365 25.1262 30.3073C25.0468 29.91 25.0627 29.0677 25.1262 28.6544C25.158 28.4637 25.2534 28.0664 25.3487 27.8915C25.4282 27.7167 25.6507 27.3829 25.7938 27.224C26.0163 26.9856 26.509 26.5247 26.7792 26.3499C26.9858 26.2227 27.4308 25.9843 27.6533 25.9048C27.9235 25.8254 28.75 25.7936 28.75 25.7936V23.0122V22.901H27.9871L27.7646 24.3314L26.7792 24.5539L26.0163 23.4572L24.9196 24.1248L25.3646 25.3327V25.5552L24.8084 26.1115L23.2508 25.6505ZM32.5962 25.3168C32.5167 25.3168 32.3419 25.3804 32.2624 25.428C32.1988 25.4757 32.0876 25.587 32.0399 25.6505C32.0081 25.6982 31.9287 25.8731 31.9287 25.8731V25.9843H30.2757L29.0678 27.1922H28.8453V26.3181L28.7341 26.0956C28.7341 26.0956 27.9871 26.1274 27.7487 26.2068C27.2877 26.3658 26.4295 26.9538 26.0957 27.3035C25.8097 27.6054 25.5236 28.3207 25.4282 28.7339C25.3646 29.0518 25.3646 29.7352 25.4282 30.0531C25.46 30.2438 25.5554 30.6411 25.6507 30.8159C25.7302 30.9908 25.9527 31.3404 26.0957 31.4835C26.4295 31.8013 27.1924 32.3417 27.6374 32.4689C27.9076 32.5483 28.7341 32.5801 28.7341 32.5801L28.8453 32.4689V31.706H29.7195L30.7049 32.6914H31.1499C31.1499 32.6914 31.1817 32.9775 31.2611 33.0251C31.579 33.2318 31.579 33.2317 31.7061 33.2476C31.8969 33.2794 32.1353 33.3112 32.469 33.1364C32.5644 33.0887 32.6756 32.898 32.6915 32.8026C32.7233 32.6437 32.771 32.3576 32.5803 32.0397C32.5008 31.9126 32.2783 31.7695 32.1353 31.706C32.0399 31.6583 31.8015 31.6742 31.6902 31.706C31.5631 31.7378 31.3247 31.8331 31.2452 31.9285C31.1817 31.9921 31.134 32.2622 31.134 32.2622H30.8002L30.2439 31.706L30.1804 31.5947L30.0691 31.4835L29.7353 31.261H28.8612V30.4981H29.0837H29.9579H30.0691H31.3883L32.1512 31.1656H35.5683C35.5683 31.1656 35.7272 31.4358 35.7908 31.4994C35.8702 31.5947 35.9974 31.706 36.1245 31.7219C36.2835 31.7537 36.649 31.706 36.7921 31.6106C36.9033 31.547 37.094 31.3086 37.1258 31.1656C37.1576 31.0226 37.1258 30.7842 37.0146 30.4981C36.9669 30.3709 36.808 30.2279 36.6808 30.1643C36.5537 30.1007 36.2676 30.1325 36.1245 30.1643C35.9974 30.1961 35.8702 30.2915 35.7908 30.3868C35.7272 30.4504 35.5683 30.7206 35.5683 30.7206H32.1512L31.6108 30.1643H28.9725H28.8612V29.4014H30.5141L31.0704 29.9577H31.9445C31.9445 29.9577 32.2306 30.3232 32.3896 30.4027C32.5326 30.4663 32.8823 30.5457 33.0571 30.514C33.1207 30.4981 33.3432 30.3391 33.3909 30.2915C33.4703 30.2279 33.5975 30.053 33.6134 29.9577C33.6452 29.7988 33.5816 29.4491 33.5021 29.2902C33.4385 29.1471 33.1048 29.0041 32.9458 28.9564C32.8187 28.9087 32.5167 28.9882 32.3896 29.0677C32.2465 29.163 31.9445 29.6239 31.9445 29.6239H31.1817L30.6254 29.0677H28.8612V28.6226H31.3883L32.1512 27.8597H33.8041C33.8041 27.8597 33.8677 28.114 33.9153 28.1935C33.9789 28.273 34.1537 28.3842 34.2491 28.416C34.408 28.4637 34.7577 28.4796 34.9166 28.416C35.0756 28.3366 35.3299 28.0346 35.3616 27.8597C35.3934 27.669 35.2663 27.2399 35.1391 27.0969C35.0597 27.0015 34.8213 26.8902 34.6941 26.8743C34.5511 26.8585 34.265 26.9061 34.1378 26.9856C34.0266 27.0651 33.963 27.1127 33.9153 27.2081C33.8836 27.2876 33.8041 27.5419 33.8041 27.5419H31.9287L31.7061 27.7644L31.2611 28.2094H28.8453V27.6531H29.1791L30.387 26.4452H31.9287C31.9287 26.4452 32.0717 26.6995 32.1512 26.779C32.2306 26.8585 32.3896 26.9856 32.4849 27.0015C32.6439 27.0333 33.0094 26.9856 33.1525 26.8902C33.2637 26.8267 33.4385 26.5883 33.4862 26.4452C33.5339 26.3181 33.5339 26.032 33.4862 25.889C33.4385 25.7618 33.2796 25.5234 33.1525 25.4439C33.0253 25.3486 32.7392 25.3168 32.5962 25.3168Z" fill="#7F007F" stroke="#7F007F"/>
<path d="M28.2573 26.636L28.305 32.0239C28.305 32.0239 27.86 32.0239 27.3673 31.8014C26.8746 31.5153 26.509 31.1656 26.3183 30.8637C26.1753 30.6411 25.9369 30.1326 25.8733 29.8783C25.8256 29.6399 25.8256 29.1313 25.8733 28.8929C25.921 28.6545 26.0799 28.2094 26.207 28.0187C26.3501 27.7803 26.6997 27.3512 26.9223 27.1923C27.2242 26.9856 28.2573 26.636 28.2573 26.636Z" fill="#7F007F" stroke="#7F007F"/>
<path d="M62.466 22.307L52.113 17.792V16.154L62.466 11.639V13.361L52.869 17.498V16.448L62.466 20.585V22.307ZM69.1988 23.189C68.2748 23.189 67.4558 22.972 66.7418 22.538C66.0418 22.104 65.4958 21.474 65.1038 20.648C64.7258 19.822 64.5368 18.842 64.5368 17.708C64.5368 16.56 64.7258 15.58 65.1038 14.768C65.4958 13.956 66.0418 13.333 66.7418 12.899C67.4558 12.451 68.2748 12.227 69.1988 12.227C70.1088 12.227 70.9068 12.458 71.5928 12.92C72.2928 13.368 72.7548 13.984 72.9788 14.768H72.7268V7.544H74.8478V23H72.7478V20.606H72.9998C72.7618 21.404 72.2998 22.034 71.6138 22.496C70.9278 22.958 70.1228 23.189 69.1988 23.189ZM69.7238 21.53C70.6338 21.53 71.3688 21.208 71.9288 20.564C72.4888 19.92 72.7688 18.968 72.7688 17.708C72.7688 16.448 72.4888 15.503 71.9288 14.873C71.3688 14.229 70.6338 13.907 69.7238 13.907C68.7998 13.907 68.0578 14.229 67.4978 14.873C66.9518 15.503 66.6788 16.448 66.6788 17.708C66.6788 18.968 66.9518 19.92 67.4978 20.564C68.0578 21.208 68.7998 21.53 69.7238 21.53ZM81.7017 23.189C80.4277 23.189 79.4687 22.846 78.8247 22.16C78.1947 21.46 77.8797 20.389 77.8797 18.947V12.416H80.0007V18.905C80.0007 19.787 80.1827 20.438 80.5467 20.858C80.9107 21.278 81.4637 21.488 82.2057 21.488C83.0457 21.488 83.7247 21.208 84.2427 20.648C84.7607 20.088 85.0197 19.346 85.0197 18.422V12.416H87.1407V23H85.0827V20.732H85.3557C85.0617 21.516 84.5927 22.125 83.9487 22.559C83.3047 22.979 82.5557 23.189 81.7017 23.189ZM90.2054 23V15.041C90.2054 14.607 90.1914 14.173 90.1634 13.739C90.1494 13.291 90.1214 12.85 90.0794 12.416H92.1374L92.3684 15.146H92.0324C92.1724 14.488 92.4104 13.942 92.7464 13.508C93.0824 13.074 93.4884 12.752 93.9644 12.542C94.4544 12.332 94.9654 12.227 95.4974 12.227C95.7214 12.227 95.9104 12.241 96.0644 12.269C96.2184 12.283 96.3724 12.311 96.5264 12.353L96.5054 14.243C96.2674 14.145 96.0574 14.089 95.8754 14.075C95.7074 14.047 95.4974 14.033 95.2454 14.033C94.6294 14.033 94.1044 14.173 93.6704 14.453C93.2364 14.719 92.9074 15.083 92.6834 15.545C92.4594 16.007 92.3474 16.504 92.3474 17.036V23H90.2054ZM102.913 23.189C101.205 23.189 99.8608 22.706 98.8808 21.74C97.9008 20.774 97.4108 19.437 97.4108 17.729C97.4108 16.623 97.6208 15.657 98.0408 14.831C98.4748 14.005 99.0698 13.368 99.8258 12.92C100.596 12.458 101.485 12.227 102.493 12.227C103.487 12.227 104.32 12.437 104.992 12.857C105.664 13.277 106.175 13.872 106.525 14.642C106.875 15.398 107.05 16.294 107.05 17.33V18.002H99.0698V16.784H105.601L105.244 17.057C105.244 16.007 105.006 15.195 104.53 14.621C104.068 14.033 103.396 13.739 102.514 13.739C101.534 13.739 100.778 14.082 100.246 14.768C99.7138 15.44 99.4478 16.371 99.4478 17.561V17.771C99.4478 19.017 99.7488 19.955 100.351 20.585C100.967 21.215 101.835 21.53 102.955 21.53C103.571 21.53 104.145 21.446 104.677 21.278C105.223 21.096 105.741 20.802 106.231 20.396L106.924 21.845C106.434 22.279 105.839 22.615 105.139 22.853C104.439 23.077 103.697 23.189 102.913 23.189Z" fill="#007F7F"/>
<path d="M110.114 23V14.054H108.056V12.416H110.702L110.114 12.962V11.282C110.114 10.036 110.429 9.091 111.059 8.447C111.689 7.789 112.613 7.46 113.831 7.46C114.125 7.46 114.433 7.481 114.755 7.523C115.077 7.565 115.343 7.635 115.553 7.733V9.455C115.385 9.385 115.175 9.329 114.923 9.287C114.685 9.231 114.44 9.203 114.188 9.203C113.782 9.203 113.432 9.287 113.138 9.455C112.844 9.609 112.613 9.847 112.445 10.169C112.291 10.491 112.214 10.904 112.214 11.408V12.836L111.899 12.416H115.091V14.054H112.235V23H110.114ZM121.115 23.189C120.065 23.189 119.155 22.972 118.385 22.538C117.615 22.09 117.02 21.46 116.6 20.648C116.18 19.822 115.97 18.842 115.97 17.708C115.97 16.574 116.18 15.601 116.6 14.789C117.02 13.963 117.615 13.333 118.385 12.899C119.155 12.451 120.065 12.227 121.115 12.227C122.165 12.227 123.075 12.451 123.845 12.899C124.629 13.333 125.231 13.963 125.651 14.789C126.085 15.601 126.302 16.574 126.302 17.708C126.302 18.842 126.085 19.822 125.651 20.648C125.231 21.46 124.629 22.09 123.845 22.538C123.075 22.972 122.165 23.189 121.115 23.189ZM121.115 21.53C122.039 21.53 122.774 21.208 123.32 20.564C123.866 19.92 124.139 18.968 124.139 17.708C124.139 16.448 123.866 15.503 123.32 14.873C122.774 14.229 122.039 13.907 121.115 13.907C120.205 13.907 119.477 14.229 118.931 14.873C118.385 15.503 118.112 16.448 118.112 17.708C118.112 18.968 118.378 19.92 118.91 20.564C119.456 21.208 120.191 21.53 121.115 21.53ZM128.74 23V15.041C128.74 14.607 128.726 14.173 128.698 13.739C128.684 13.291 128.656 12.85 128.614 12.416H130.672L130.903 15.146H130.567C130.707 14.488 130.945 13.942 131.281 13.508C131.617 13.074 132.023 12.752 132.499 12.542C132.989 12.332 133.5 12.227 134.032 12.227C134.256 12.227 134.445 12.241 134.599 12.269C134.753 12.283 134.907 12.311 135.061 12.353L135.04 14.243C134.802 14.145 134.592 14.089 134.41 14.075C134.242 14.047 134.032 14.033 133.78 14.033C133.164 14.033 132.639 14.173 132.205 14.453C131.771 14.719 131.442 15.083 131.218 15.545C130.994 16.007 130.882 16.504 130.882 17.036V23H128.74ZM141.195 23.189C140.131 23.189 139.2 22.972 138.402 22.538C137.618 22.09 137.009 21.453 136.575 20.627C136.155 19.787 135.945 18.793 135.945 17.645C135.945 16.511 136.162 15.538 136.596 14.726C137.03 13.914 137.639 13.298 138.423 12.878C139.207 12.444 140.131 12.227 141.195 12.227C141.881 12.227 142.546 12.346 143.19 12.584C143.834 12.808 144.366 13.13 144.786 13.55L144.093 15.041C143.701 14.663 143.26 14.383 142.77 14.201C142.28 14.005 141.804 13.907 141.342 13.907C140.334 13.907 139.543 14.229 138.969 14.873C138.395 15.517 138.108 16.448 138.108 17.666C138.108 18.898 138.395 19.843 138.969 20.501C139.543 21.159 140.334 21.488 141.342 21.488C141.79 21.488 142.259 21.404 142.749 21.236C143.239 21.054 143.687 20.767 144.093 20.375L144.786 21.866C144.352 22.286 143.806 22.615 143.148 22.853C142.504 23.077 141.853 23.189 141.195 23.189ZM151.721 23.189C150.013 23.189 148.669 22.706 147.689 21.74C146.709 20.774 146.219 19.437 146.219 17.729C146.219 16.623 146.429 15.657 146.849 14.831C147.283 14.005 147.878 13.368 148.634 12.92C149.404 12.458 150.293 12.227 151.301 12.227C152.295 12.227 153.128 12.437 153.8 12.857C154.472 13.277 154.983 13.872 155.333 14.642C155.683 15.398 155.858 16.294 155.858 17.33V18.002H147.878V16.784H154.409L154.052 17.057C154.052 16.007 153.814 15.195 153.338 14.621C152.876 14.033 152.204 13.739 151.322 13.739C150.342 13.739 149.586 14.082 149.054 14.768C148.522 15.44 148.256 16.371 148.256 17.561V17.771C148.256 19.017 148.557 19.955 149.159 20.585C149.775 21.215 150.643 21.53 151.763 21.53C152.379 21.53 152.953 21.446 153.485 21.278C154.031 21.096 154.549 20.802 155.039 20.396L155.732 21.845C155.242 22.279 154.647 22.615 153.947 22.853C153.247 23.077 152.505 23.189 151.721 23.189ZM157.872 22.307V20.585L167.469 16.448V17.498L157.872 13.361V11.639L168.225 16.154V17.792L157.872 22.307Z" fill="#663093"/>
</svg>
