<svg width="33" height="33" viewBox="0 0 33 33" fill="none" xmlns="http://www.w3.org/2000/svg">
<rect opacity="0.25" x="1.49316" y="0.5" width="31.0069" height="31.0069" rx="15.5034" stroke="white"/>
<path fill-rule="evenodd" clip-rule="evenodd" d="M16.8425 13.8912L16.8656 14.2817L16.4802 14.2339C15.0772 14.0506 13.8514 13.429 12.8107 12.3851L12.3019 11.8672L12.1709 12.2497C11.8934 13.1023 12.0707 14.0028 12.6489 14.6084C12.9572 14.9431 12.8878 14.9909 12.3559 14.7917C12.1709 14.7279 12.009 14.6801 11.9936 14.704C11.9396 14.7598 12.1246 15.485 12.2711 15.7719C12.4715 16.1703 12.8801 16.5608 13.3272 16.7919L13.705 16.9751L13.2579 16.9831C12.8262 16.9831 12.8107 16.9911 12.857 17.1584C13.0112 17.6764 13.6202 18.2262 14.2986 18.4653L14.7765 18.6326L14.3602 18.8876C13.7435 19.2542 13.0189 19.4614 12.2942 19.4773C11.9473 19.4853 11.6621 19.5172 11.6621 19.5411C11.6621 19.6208 12.6026 20.067 13.1499 20.2423C14.7919 20.7603 16.7423 20.5372 18.207 19.6526C19.2477 19.0231 20.2884 17.772 20.774 16.5608C21.0362 15.9153 21.2983 14.7359 21.2983 14.1701C21.2983 13.8036 21.3214 13.7558 21.7531 13.3175C22.0075 13.0625 22.2465 12.7836 22.2927 12.7039C22.3698 12.5525 22.3621 12.5525 21.9689 12.6879C21.3137 12.927 21.2212 12.8951 21.5449 12.5365C21.7839 12.2815 22.0691 11.8194 22.0691 11.6839C22.0691 11.66 21.9535 11.6998 21.8225 11.7715C21.6837 11.8512 21.3753 11.9708 21.1441 12.0425L20.7278 12.1779L20.3501 11.915C20.1419 11.7715 19.849 11.6122 19.6948 11.5644C19.3016 11.4528 18.7003 11.4687 18.3457 11.5962C17.3821 11.9548 16.7731 12.8792 16.8425 13.8912Z" fill="white"/>
</svg>
