<svg width="242" height="63" viewBox="0 0 242 63" fill="none" xmlns="http://www.w3.org/2000/svg">
<path d="M4.01332 1.05241L24.6873 1C24.6873 1 25.945 1.18342 26.3119 1.36684C26.7049 1.57646 27.4124 2.17912 27.6744 2.54596C27.9626 2.99141 28.4081 4.53737 28.4081 4.53737V28.5653H4.38015C4.38015 28.5653 2.9128 27.884 2.46735 27.4648C2.23153 27.2552 1.70747 26.5739 1.55026 26.2857C1.36684 25.945 1 24.8445 1 24.8445V4.35395C1 4.35395 1.13101 3.25344 1.36684 2.9128C1.52406 2.65077 1.9433 1.78608 2.36254 1.55026C2.80799 1.31443 4.01332 1.05241 4.01332 1.05241ZM12.4506 6.81701C11.9527 6.84321 10.9308 6.97423 10.4592 7.18385C10.2496 7.26246 9.90893 7.57689 9.72552 7.73411C9.41108 7.99613 8.70361 8.49399 8.46778 8.83462C8.25816 9.12285 8.02234 9.77792 7.91753 10.0924C7.81271 10.433 7.96993 11.2715 7.73411 11.5335C7.52448 11.7955 6.7384 11.7169 6.47637 11.9003C5.97852 12.1886 5.11383 13.0271 4.8518 13.5249C4.64218 13.9442 4.51117 14.8875 4.48497 15.3329C4.45876 15.7784 4.51117 16.7216 4.66839 17.1409C4.7732 17.4553 5.16624 18.0056 5.40206 18.2414C5.82131 18.6869 7.39347 19.6826 7.39347 19.6826H9.75172H10.302H11.0357H11.9003H12.4506H12.8174H13.5511H14.2586H14.6254H14.8088H15.5425H16.2762H17.0099H17.7436H18.2938H18.6607H18.9751H20.0756H21.5168C21.5168 19.6826 22.6435 19.5253 22.9579 19.3157C23.4296 19.0275 24.1632 18.1628 24.3991 17.6912C24.4777 17.5339 24.5563 17.1409 24.5825 16.9575C24.6087 16.7741 24.6087 16.4072 24.5825 16.2238C24.5039 15.7521 24.268 14.8351 24.0322 14.4158C23.875 14.1014 23.4034 13.5511 23.1151 13.3153C22.8269 13.1057 22.0408 13.0533 21.8574 12.765C21.674 12.503 21.7526 11.6121 21.674 11.3239C21.543 10.9046 21.0713 10.1972 20.7569 9.88273C20.4948 9.5945 19.866 9.09665 19.4991 8.96564C19.0275 8.80842 18.6869 8.70361 17.8746 8.96564C17.6912 9.01804 17.1409 9.38488 16.9575 9.33247C16.8003 9.28007 16.6954 8.91323 16.5906 8.78222C16.3024 8.44158 15.6997 7.76031 15.3329 7.52448C15.0447 7.34107 14.3896 7.07904 14.0752 6.97423C13.6821 6.86942 12.8698 6.79081 12.4506 6.81701Z" fill="#7F007F" stroke="#7F007F"/>
<path d="M9.85646 19.6825L8.10087 17.56L7.99606 14.966C7.99606 14.966 7.78644 14.835 7.70783 14.7564C7.62923 14.6777 7.52441 14.4419 7.52441 14.3371C7.52441 14.2061 7.57682 13.9703 7.65543 13.8917C7.73404 13.7869 7.94366 13.6558 8.07467 13.6296C8.15328 13.6034 8.3629 13.6034 8.44151 13.6296C8.57252 13.682 8.83455 13.8917 8.88696 14.0489C8.93936 14.1537 8.91316 14.3633 8.91316 14.4681C8.88696 14.5467 8.83455 14.7302 8.78215 14.8088C8.70354 14.8874 8.44151 15.0708 8.44151 15.0708L8.52012 17.56L10.4067 19.6039L9.85646 19.6825Z" fill="#7F007F" stroke="#7F007F"/>
<path d="M12.241 19.6825V18.713L10.1448 16.643V12.9222C10.1448 12.9222 9.72555 12.6602 9.64694 12.5292C9.59454 12.4506 9.51593 12.2147 9.51593 12.1099C9.51593 11.9789 9.56834 11.8741 9.67315 11.7693C9.75175 11.6907 10.0138 11.4287 10.1186 11.4025C10.2496 11.3763 10.5378 11.4287 10.6689 11.5073C10.7475 11.5335 10.8261 11.6645 10.8785 11.7431C10.9571 11.8741 11.0881 12.1623 11.0619 12.3196C11.0357 12.4506 10.7475 12.7912 10.7475 12.7912L10.6164 12.896V16.4334L12.241 17.8483V10.5378C12.241 10.5378 11.9528 10.3544 11.9004 10.2495C11.8218 10.1709 11.717 9.96131 11.717 9.8303C11.6908 9.75169 11.6908 9.54207 11.7432 9.46346C11.7694 9.38485 11.9266 9.28004 11.979 9.25384C12.0314 9.20143 12.1886 9.14902 12.2672 9.12282C12.3458 9.09662 12.4768 9.01801 12.5554 9.04421C12.6341 9.04421 12.7389 9.14903 12.7913 9.17523C12.8961 9.22763 13.1319 9.33244 13.1843 9.43726C13.2629 9.54207 13.2891 9.80409 13.2629 9.9089C13.2367 10.0399 13.0009 10.3544 13.0009 10.3544L12.6865 10.5378V14.2062L14.5207 12.765V11.5335L14.049 11.2714C14.049 11.2714 13.8918 10.9308 13.918 10.826C13.9442 10.7212 14.0752 10.5378 14.1276 10.4592C14.18 10.3806 14.6255 10.1709 14.7303 10.1971C14.8351 10.2233 15.1233 10.4068 15.1757 10.4854C15.2019 10.564 15.3591 10.9046 15.3591 10.9832C15.3329 11.088 15.1757 11.4287 15.1757 11.4287L14.9661 11.5073L14.9137 12.896L12.7651 14.8088L12.8175 19.5777L12.241 19.6825Z" fill="#7F007F" stroke="#7F007F"/>
<path d="M14.5468 19.5251V16.1187L15.5425 15.0182V14.3631L15.7259 13.9963C15.7259 13.9963 15.9094 13.8915 15.988 13.8915C16.0404 13.8915 16.1714 13.8915 16.25 13.8915C16.3024 13.8915 16.381 13.8915 16.4334 13.8915C16.512 13.9177 16.643 13.9963 16.6954 14.0749C16.7478 14.1273 16.8527 14.2845 16.8789 14.3631C16.9051 14.4417 16.8789 14.6252 16.8789 14.7038C16.8789 14.7824 16.8003 15.0182 16.8003 15.0182C16.8003 15.0182 16.512 15.254 16.4072 15.254C16.3024 15.2802 16.0142 15.1492 16.0142 15.1492L14.9137 16.2759L14.9661 19.6823L14.5468 19.5251Z" fill="#7F007F" stroke="#7F007F"/>
<path d="M18.4247 11.7168C18.3199 11.7168 18.1365 11.7954 18.0579 11.8478C18.0055 11.874 17.8745 11.9788 17.8483 12.0312C17.8221 12.1098 17.8483 12.2671 17.8483 12.3457C17.8483 12.4243 17.7959 12.6077 17.8483 12.6601C17.9269 12.7649 18.3199 12.9221 18.3199 12.9221V15.9354L16.7477 17.2718V19.5514H17.167L17.1146 17.3766L18.5557 16.1451V13.0531L18.8964 12.8697C18.8964 12.8697 19.0012 12.5815 19.0012 12.4767C19.0012 12.3981 19.0274 12.2671 19.0012 12.1884C18.975 12.1098 18.844 11.9788 18.7654 11.9264C18.6867 11.874 18.5295 11.743 18.4247 11.7168Z" fill="#7F007F" stroke="#7F007F"/>
<path d="M18.2676 19.6826L20.4424 17.534V16.0142C20.4424 16.0142 20.1542 15.7784 20.1018 15.6736C20.0494 15.5426 19.9708 15.2543 20.0232 15.0971C20.0494 14.9923 20.2328 14.8351 20.3114 14.7827C20.39 14.7303 20.5472 14.6517 20.6258 14.6517C20.6782 14.6517 20.8092 14.6255 20.8616 14.6517C20.9403 14.6779 21.0713 14.7303 21.1237 14.7827C21.2285 14.8875 21.3595 15.1233 21.3857 15.2543C21.3857 15.3591 21.3071 15.5688 21.2547 15.6736C21.2023 15.7522 20.9665 15.9356 20.9665 15.9356L20.8092 16.0404V17.5602L18.8178 19.6826H18.2676V19.6826Z" fill="#7F007F" stroke="#7F007F"/>
<path d="M54.2702 2.10059C54.2702 2.10059 57.4932 2.2316 57.8076 2.36261C58.0172 2.44122 58.5413 2.80806 58.5413 2.80806L59.3536 3.54174L60.1659 4.72086L60.3493 5.82138L60.5327 26.1285C60.5327 26.1285 60.4541 27.1504 60.3493 27.3862C60.1921 27.7793 59.9824 28.3033 59.6418 28.5654C58.4365 29.5611 57.7028 29.4825 57.7028 29.4825L56.2617 29.6659H55.1611H48.8201H47.3789H38.4962L33.1508 29.7445V16.3287V14.7041L32.9674 6.0048V5.45454C32.9674 5.45454 33.2032 4.74706 33.3342 4.53744C33.4653 4.30162 33.8059 3.90858 33.9631 3.72516C34.1465 3.48933 34.5396 2.99148 34.7754 2.80806C35.0636 2.59844 36.1379 2.2578 36.1379 2.2578L54.2702 2.10059ZM45.4661 8.07481C45.2827 8.15342 44.8897 8.31064 44.7324 8.44165C44.4442 8.65127 43.9988 9.22773 43.8153 9.54217C43.6319 9.8304 43.3437 10.4855 43.2651 10.7999C43.1865 11.2453 43.1341 12.1886 43.2651 12.6079C43.4485 13.1843 44.1822 14.2849 44.7062 14.5993C45.1255 14.8613 46.6977 14.9661 46.6977 14.9661V15.333L44.8897 15.5164L43.6319 16.2501L42.7148 17.1672C42.7148 17.1672 41.6405 16.3287 40.54 16.0667C38.8892 15.6998 37.9983 15.8832 37.9983 15.8832L38.5486 15.5164C38.5486 15.5164 39.9373 15.6474 40.3566 15.5164C40.7234 15.3854 41.3523 14.8875 41.6143 14.5993C41.7715 14.4421 42.0598 14.0752 42.1646 13.8656C42.2432 13.7084 42.3218 13.3154 42.348 13.1319C42.3742 12.7127 42.2956 11.8742 42.1646 11.5074C42.0598 11.1929 41.6929 10.6427 41.4309 10.4069C41.1951 10.1972 40.6448 9.96141 40.3304 9.8566C39.9373 9.75179 39.0989 9.59457 38.7058 9.67318C38.339 9.75179 37.4481 10.4069 37.4481 10.4069C37.1861 10.5903 36.6882 11.0357 36.531 11.324C36.3738 11.6646 36.3214 12.4245 36.3476 12.7651C36.4 13.1843 36.6358 14.049 36.8978 14.3897C37.1598 14.7565 38.339 15.4902 38.339 15.4902C38.339 15.4902 36.6358 16.4859 36.1641 16.9313C35.7711 17.3244 35.116 18.2415 34.9064 18.7393C34.7492 19.08 34.5396 20.1805 34.5396 20.1805V21.3072V21.674L34.723 21.8575H58.5413V20.5997C58.5413 20.5997 58.5937 19.6302 58.5413 19.342C58.4627 18.949 58.2007 18.2153 57.991 17.9008C57.8076 17.5864 57.3098 17.0624 57.0739 16.8003C56.9429 16.6693 56.5237 16.2501 56.5237 16.2501L55.2659 15.6998H54.0082V15.333C54.0082 15.333 55.1349 14.9923 55.4494 14.7827C55.7638 14.5993 56.3403 14.1539 56.5499 13.8656C56.6809 13.656 56.8381 13.1843 56.9167 12.9485C56.9953 12.6865 57.1263 12.1362 57.1001 11.848C57.0477 11.5074 56.7595 10.8523 56.5499 10.5903C56.3403 10.2758 55.79 9.69938 55.4494 9.48976C55.2922 9.38495 54.8991 9.33254 54.7157 9.30634C54.4013 9.28014 53.7462 9.22773 53.458 9.30634C53.0125 9.41115 52.1216 9.8566 51.8334 10.2234C51.5714 10.5117 51.3617 11.2978 51.2831 11.6646C51.2045 12.11 51.0997 12.8699 51.2831 13.2892C51.3879 13.525 51.8334 13.9966 52.0168 14.2063C52.174 14.3897 52.3574 14.6255 52.5671 14.7565C52.8815 14.9399 54.1916 15.1234 54.1916 15.1234L54.0082 15.6736H53.458L52.5409 15.857L51.6238 16.2239L50.7067 16.7741L50.5232 16.5907L48.8987 15.4902L46.7239 15.3068V14.9399C46.7239 14.9399 47.1169 15.2806 48.7153 14.3897C48.9773 14.2325 49.6848 13.2106 49.8158 12.9485C49.9206 12.7127 50.1302 12.2935 50.1826 12.0314C50.2612 11.6384 50.2612 10.7999 50.1826 10.4069C50.1302 10.171 49.9468 9.69938 49.8158 9.48976C49.6324 9.17533 49.1869 8.62507 48.8987 8.38925C48.6104 8.17962 47.9554 7.9176 47.6409 7.83899C47.3265 7.78658 46.6977 7.81279 46.3832 7.83899C46.1474 7.9176 45.7019 7.9962 45.4661 8.07481Z" fill="#007F7F" stroke="#007F7F"/>
<path d="M41.1163 22.0407C40.9329 20.8354 40.9591 20.2589 41.1163 19.6825C41.1949 19.4205 41.4046 18.9226 41.5094 18.6868C41.6142 18.4772 41.8238 18.0579 41.9548 17.8745C42.0858 17.6387 42.5051 16.9574 42.5051 16.9574L42.7933 17.036C42.7933 17.036 42.0858 18.0579 41.9286 18.4248C41.719 18.844 41.4046 19.7611 41.3522 20.2327C41.2997 20.6782 41.4832 22.0407 41.4832 22.0407H41.1163V22.0407Z" fill="#007F7F" stroke="#007F7F"/>
<path d="M50.7328 16.7737L51.2045 17.3501L51.6499 18.1362L52.043 18.9485L52.3836 20.2586V21.3854V21.857H52.6457V20.7303L52.4622 19.6822L52.1216 18.5031L51.781 17.7694L51.1259 16.7737H50.7328Z" fill="#007F7F" stroke="#007F7F"/>
<path d="M6.7384 32.2074H27.7792H28.3295H28.6963H30.4257V56.4187C30.4257 56.4187 30.4257 56.9428 28.9845 58.515C27.9626 59.6155 26.7049 59.7727 26.7049 59.7727L5.8213 59.8251C5.8213 59.8251 4.98281 59.2224 4.72078 59.039C4.48496 58.8818 4.09192 58.4363 3.9085 58.2267C3.80369 58.1219 3.64647 57.8861 3.54166 57.7813C3.46305 57.6765 3.25343 57.4406 3.17482 57.3358C3.12242 57.2572 2.9914 56.969 2.9914 56.969L2.80798 56.5235V56.2615V36.1116L2.9914 35.1945C2.9914 35.1945 3.09621 34.7491 3.17482 34.5656C3.25343 34.356 3.48925 34.0154 3.62027 33.832C3.80369 33.5961 4.19673 33.1769 4.43255 33.0197C4.69458 32.8101 5.61168 32.3908 5.61168 32.3908L6.7384 32.2074ZM15.9094 36.9239C15.5687 37.0025 14.6516 37.4741 14.6516 37.4741L13.9179 37.841L11.9265 38.9415L10.302 39.8586L8.86082 40.7757C8.86082 40.7757 8.36297 41.4046 8.31056 41.6928C7.94372 44.0248 8.12714 45.859 8.12714 45.859C8.12714 45.859 8.20575 50.6017 8.31056 50.7589C8.49398 51.0472 9.41108 51.676 9.41108 51.676L13.0271 53.8509L13.9442 54.4011C13.9442 54.4011 15.4115 55.1872 15.9356 55.3182C16.1976 55.3706 16.774 55.3968 17.0361 55.3182C17.2981 55.2396 17.7173 55.1086 17.9532 54.9514C18.2676 54.7418 19.2109 54.2177 19.2109 54.2177L20.4686 53.484C20.4686 53.484 23.0365 51.9643 23.9274 51.3092C24.1632 51.1258 24.3728 50.8638 24.4777 50.5755C24.5039 50.4969 24.6611 50.0253 24.6611 50.0253V42.5837C24.6611 42.5837 24.6087 41.7452 24.4777 41.4832C24.399 41.2998 23.9274 40.9329 23.9274 40.9329L23.3771 40.5661L21.0189 39.1249L17.7173 37.2907C17.7173 37.2907 17.1933 36.9763 16.9837 36.9239C16.7216 36.8453 16.1714 36.8715 15.9094 36.9239ZM3.01761 55.7899V56.1567L3.38444 55.9733L3.01761 55.7899Z" fill="#007F7F" stroke="#007F7F"/>
<path d="M15.9881 40.7233C16.1715 40.6971 16.8528 40.6971 17.0886 40.7233C17.272 40.7495 17.6389 40.8543 17.8223 40.9067C18.0843 40.9853 18.6608 41.1425 18.9228 41.2735C19.1848 41.4045 20.2853 42.3478 20.4687 42.5313C20.7046 42.7933 21.281 43.4483 21.281 43.4483L20.1019 44.2606L19.2896 44.7061L18.2939 43.789L17.6651 43.4221L17.2982 43.2387C17.2982 43.2387 17.272 43.2387 16.748 43.2387C16.3287 43.2387 16.0143 43.1863 15.8309 43.2387C15.7261 43.2911 15.3854 43.4221 15.3854 43.4221L14.8352 43.789L14.2587 44.3654L13.8919 44.9157C13.8919 44.9157 13.7346 45.466 13.7084 45.728C13.6822 45.9638 13.8133 46.5665 13.8919 46.8285C13.9705 47.0905 14.4421 47.7456 14.4421 47.7456C14.4421 47.7456 14.9662 48.2173 15.2544 48.3745C15.5164 48.5055 16.3549 48.7413 16.3549 48.7413C16.3549 48.7413 16.8266 48.8199 17.0886 48.7413C17.3506 48.6627 17.6126 48.7151 17.8223 48.5579C18.0057 48.4269 18.7394 47.6408 18.7394 47.6408L19.8399 48.3745L20.8356 49.0033L20.2067 49.8156L19.5779 50.2611L18.7656 50.7065C18.7656 50.7065 17.8223 51.0209 17.5078 51.0734C17.0624 51.152 16.1715 51.1782 15.6998 51.0734C15.2282 50.9685 14.3111 50.5755 13.8919 50.3397C13.4726 50.1038 12.8437 49.5536 12.5293 49.1606C12.2411 48.8199 11.717 47.9552 11.6122 47.536C11.5074 47.0381 11.3764 46.0424 11.4288 45.5446C11.4812 45.0729 11.7432 44.1296 11.9791 43.7366C12.2149 43.3435 12.7913 42.5313 13.1582 42.1906C13.4464 41.9286 14.4159 41.2735 14.4159 41.2735C14.4159 41.2735 15.0972 40.9853 15.333 40.9067C15.4902 40.8543 15.7523 40.7495 15.9881 40.7233Z" fill="#007F7F" stroke="#007F7F"/>
<path d="M22.958 45.9641V45.3091L22.4078 45.2043L22.434 44.654H21.8051L21.7789 45.1519H21.2024V44.6278H20.5736L20.5212 45.2567L19.8137 45.2829V45.9379H20.495V46.593H19.7875L19.8137 47.2219H20.495V47.7721H21.2024V47.3529L21.8051 47.3791V47.7721H22.434V47.3267L22.9842 47.3005V46.6454L22.5126 46.593L22.4864 45.9379L22.958 45.9641ZM21.4382 46.5668C20.9404 46.5668 20.9404 45.8069 21.4382 45.8069C21.9099 45.8069 21.9099 46.5668 21.4382 46.5668Z" fill="#007F7F" stroke="#007F7F"/>
<path d="M34.5919 34.3822H58.0958C58.0958 34.3822 59.5893 34.3822 60.7161 35.6399C60.9257 35.8758 61.2925 36.3736 61.4497 36.6356C61.6332 36.9763 62 38.0768 62 38.0768V58.3839C62 58.3839 61.6594 59.5106 61.4497 59.8251C61.2663 60.1657 60.7685 60.7684 60.454 61.0042C60.0086 61.3448 58.4626 61.9213 58.4626 61.9213H38.3127C38.3127 61.9213 37.186 61.5807 36.8716 61.371C36.4785 61.1352 35.771 60.5587 35.509 60.1919C35.1684 59.7203 34.5919 58.0171 34.5919 58.0171V34.3822V34.3822ZM37.6838 41.6404L36.9502 43.4484L38.5747 44.8895L38.2079 46.3307L36.2165 46.6975L35.8496 46.8809V48.5055L36.2165 48.6889L37.1336 48.8723L37.6838 49.0557L38.2341 49.2392L38.6009 50.1563V50.8899L37.8673 51.4402L36.9502 52.1739L37.317 53.091L38.0507 54.0081L40.2255 53.091L40.7758 53.8246L41.1426 54.1915L40.4089 56.5497L42.2169 57.4668L43.8415 55.6588L45.0992 56.0257L45.4661 58.3839L46.1997 58.5673H46.5666L46.75 58.3839V54.0343L46.5666 53.6674C46.5666 53.6674 44.811 53.484 44.2607 53.2744C43.6581 53.0386 42.4527 52.3573 42.0335 51.8594C41.5881 51.3092 40.9068 50.0252 40.7758 49.3178C40.6448 48.6627 40.671 47.274 40.7758 46.5927C40.8282 46.2783 40.9854 45.6232 41.1426 45.335C41.2736 45.0467 41.6405 44.4965 41.8763 44.2344C42.2431 43.8414 43.0554 43.0815 43.5009 42.7933C43.8415 42.5837 44.5752 42.1906 44.942 42.0596C45.3875 41.9286 46.75 41.8762 46.75 41.8762V37.2907V37.1073H45.4923L45.1254 39.4655L43.5009 39.8324L42.2431 38.0244L40.4351 39.1249L41.1688 41.1163V41.4831L40.2517 42.4002L37.6838 41.6404ZM53.0911 41.0901C52.96 41.0901 52.6718 41.1949 52.5408 41.2735C52.436 41.3521 52.2526 41.5356 52.174 41.6404C52.1216 41.719 51.9905 42.0072 51.9905 42.0072V42.1906H49.2655L47.274 44.182H46.9072V42.7409L46.7238 42.374C46.7238 42.374 45.4923 42.4264 45.0992 42.5575C44.3393 42.8195 42.9244 43.789 42.3741 44.3654C41.9025 44.8633 41.4308 46.0424 41.2736 46.7237C41.1688 47.2478 41.1688 48.3745 41.2736 48.8985C41.326 49.213 41.4832 49.868 41.6405 50.1563C41.7715 50.4445 42.1383 51.0209 42.3741 51.2568C42.9244 51.7808 44.1821 52.6717 44.9158 52.8813C45.3612 53.0124 46.7238 53.0648 46.7238 53.0648L46.9072 52.8813V51.6236H48.3484L49.9729 53.2482H50.7066C50.7066 53.2482 50.759 53.7198 50.89 53.7984C51.4141 54.1391 51.4141 54.1391 51.6237 54.1653C51.9381 54.2177 52.3312 54.2701 52.8814 53.9819C53.0386 53.9032 53.2221 53.5888 53.2483 53.4316C53.3007 53.1696 53.3793 52.6979 53.0649 52.1739C52.9338 51.9642 52.567 51.7284 52.3312 51.6236C52.174 51.545 51.7809 51.5712 51.5975 51.6236C51.3879 51.676 50.9948 51.8332 50.8638 51.9905C50.759 52.0953 50.6804 52.5407 50.6804 52.5407H50.1301L49.213 51.6236L49.1082 51.4402L48.9248 51.2568L48.3746 50.8899H46.9334V49.6322H47.3003H48.7414H48.9248H51.0996L52.3574 50.7327H57.991C57.991 50.7327 58.253 51.1782 58.3578 51.283C58.4888 51.4402 58.6984 51.6236 58.9081 51.6498C59.1701 51.7022 59.7728 51.6236 60.0086 51.4664C60.192 51.3616 60.5064 50.9685 60.5588 50.7327C60.6112 50.4969 60.5588 50.1039 60.3754 49.6322C60.2968 49.4226 60.0348 49.1868 59.8252 49.0819C59.6155 48.9771 59.1439 49.0295 58.9081 49.0819C58.6984 49.1344 58.4888 49.2916 58.3578 49.4488C58.253 49.5536 57.991 49.999 57.991 49.999H52.3574L51.4665 49.0819H47.1168H46.9334V47.8242H49.6585L50.5756 48.7413H52.0167C52.0167 48.7413 52.4884 49.344 52.7504 49.475C52.9862 49.5798 53.5627 49.7108 53.8509 49.6584C53.9557 49.6322 54.3226 49.3702 54.4012 49.2916C54.5322 49.1868 54.7418 48.8985 54.768 48.7413C54.8204 48.4793 54.7156 47.9028 54.5846 47.6408C54.4798 47.405 53.9295 47.1691 53.6675 47.0905C53.4579 47.0119 52.96 47.1429 52.7504 47.274C52.5146 47.4312 52.0167 48.1911 52.0167 48.1911H50.759L49.8419 47.274H46.9334V46.5403H51.0996L52.3574 45.2825H55.0825C55.0825 45.2825 55.1873 45.7018 55.2659 45.8328C55.3707 45.9638 55.6589 46.1472 55.8161 46.1996C56.0782 46.2783 56.6546 46.3045 56.9167 46.1996C57.1787 46.0686 57.5979 45.5708 57.6503 45.2825C57.7027 44.9681 57.4931 44.2606 57.2835 44.0248C57.1525 43.8676 56.7594 43.6842 56.5498 43.658C56.314 43.6318 55.8423 43.7104 55.6327 43.8414C55.4493 43.9724 55.3445 44.051 55.2659 44.2082C55.2135 44.3392 55.0825 44.7585 55.0825 44.7585H51.9905L51.6237 45.1253L50.89 45.859H46.9072V44.9419H47.4575L49.4489 42.9505H51.9905C51.9905 42.9505 52.2264 43.3697 52.3574 43.5008C52.4884 43.6318 52.7504 43.8414 52.9076 43.8676C53.1697 43.92 53.7723 43.8414 54.0082 43.6842C54.1916 43.5794 54.4798 43.1863 54.5584 42.9505C54.637 42.7409 54.637 42.2692 54.5584 42.0334C54.4798 41.8238 54.2178 41.4307 54.0082 41.2997C53.7985 41.1425 53.3269 41.0901 53.0911 41.0901Z" fill="#7F007F" stroke="#7F007F"/>
<path d="M45.9377 43.2646L46.0163 52.1474C46.0163 52.1474 45.2827 52.1474 44.4704 51.7805C43.6581 51.3089 43.0554 50.7324 42.741 50.2346C42.5052 49.8677 42.1121 49.0293 42.0073 48.61C41.9287 48.217 41.9287 47.3785 42.0073 46.9854C42.0859 46.5924 42.348 45.8587 42.5576 45.5443C42.7934 45.1512 43.3699 44.4438 43.7367 44.1817C44.2346 43.8411 45.9377 43.2646 45.9377 43.2646Z" fill="#7F007F" stroke="#7F007F"/>
<path d="M89.4947 38.0031L74.6011 31.5079V29.1515L89.4947 22.6564V25.1336L75.6887 31.085V29.5745L89.4947 35.5259V38.0031ZM99.1803 39.2719C97.851 39.2719 96.6728 38.9597 95.6457 38.3354C94.6387 37.711 93.8532 36.8047 93.2893 35.6165C92.7455 34.4282 92.4736 33.0184 92.4736 31.3871C92.4736 29.7356 92.7455 28.3258 93.2893 27.1577C93.8532 25.9896 94.6387 25.0933 95.6457 24.469C96.6728 23.8245 97.851 23.5023 99.1803 23.5023C100.489 23.5023 101.637 23.8346 102.624 24.4992C103.631 25.1437 104.296 26.0298 104.618 27.1577H104.256V16.7654H107.307V39H104.286V35.5561H104.648C104.306 36.704 103.641 37.6103 102.654 38.275C101.668 38.9396 100.51 39.2719 99.1803 39.2719ZM99.9355 36.8853C101.245 36.8853 102.302 36.4221 103.108 35.4956C103.913 34.5692 104.316 33.1997 104.316 31.3871C104.316 29.5745 103.913 28.215 103.108 27.3087C102.302 26.3823 101.245 25.9191 99.9355 25.9191C98.6063 25.9191 97.5389 26.3823 96.7333 27.3087C95.9478 28.215 95.5551 29.5745 95.5551 31.3871C95.5551 33.1997 95.9478 34.5692 96.7333 35.4956C97.5389 36.4221 98.6063 36.8853 99.9355 36.8853ZM117.167 39.2719C115.334 39.2719 113.954 38.7785 113.028 37.7916C112.121 36.7846 111.668 35.2439 111.668 33.1695V23.7742H114.72V33.109C114.72 34.3779 114.981 35.3144 115.505 35.9186C116.029 36.5228 116.824 36.8249 117.892 36.8249C119.1 36.8249 120.077 36.4221 120.822 35.6165C121.567 34.8109 121.94 33.7435 121.94 32.4142V23.7742H124.991V39H122.03V35.7373H122.423C122 36.8652 121.325 37.7413 120.399 38.3656C119.473 38.9698 118.395 39.2719 117.167 39.2719ZM129.4 39V27.5504C129.4 26.9261 129.38 26.3017 129.339 25.6774C129.319 25.0329 129.279 24.3985 129.218 23.7742H132.179L132.511 27.7015H132.028C132.229 26.7549 132.572 25.9694 133.055 25.3451C133.538 24.7207 134.123 24.2575 134.807 23.9554C135.512 23.6533 136.247 23.5023 137.013 23.5023C137.335 23.5023 137.607 23.5224 137.828 23.5627C138.05 23.5828 138.271 23.6231 138.493 23.6835L138.463 26.4024C138.12 26.2614 137.818 26.1809 137.556 26.1608C137.315 26.1205 137.013 26.1003 136.65 26.1003C135.764 26.1003 135.009 26.3017 134.384 26.7045C133.76 27.0872 133.287 27.6108 132.964 28.2754C132.642 28.9401 132.481 29.655 132.481 30.4204V39H129.4ZM147.68 39.2719C145.223 39.2719 143.29 38.5771 141.88 37.1874C140.47 35.7977 139.765 33.8744 139.765 31.4173C139.765 29.8262 140.067 28.4366 140.672 27.2483C141.296 26.06 142.152 25.1437 143.239 24.4992C144.347 23.8346 145.626 23.5023 147.076 23.5023C148.506 23.5023 149.704 23.8044 150.671 24.4086C151.638 25.0128 152.373 25.8687 152.876 26.9764C153.38 28.064 153.632 29.3529 153.632 30.8433V31.81H142.152V30.0578H151.547L151.034 30.4506C151.034 28.9401 150.691 27.7719 150.006 26.9462C149.342 26.1003 148.375 25.6774 147.106 25.6774C145.697 25.6774 144.609 26.1708 143.844 27.1577C143.078 28.1244 142.696 29.4637 142.696 31.1756V31.4777C142.696 33.2702 143.129 34.6195 143.995 35.5259C144.881 36.4322 146.13 36.8853 147.741 36.8853C148.627 36.8853 149.453 36.7645 150.218 36.5228C151.003 36.261 151.749 35.838 152.453 35.254L153.45 37.3384C152.746 37.9628 151.89 38.4462 150.883 38.7885C149.876 39.1108 148.808 39.2719 147.68 39.2719Z" fill="#007F7F"/>
<path d="M158.039 39V26.1305H155.079V23.7742H158.885L158.039 24.5596V22.1428C158.039 20.3504 158.492 18.9909 159.399 18.0645C160.305 17.1179 161.634 16.6446 163.386 16.6446C163.809 16.6446 164.252 16.6748 164.716 16.7352C165.179 16.7956 165.562 16.8963 165.864 17.0373V19.5145C165.622 19.4138 165.32 19.3333 164.957 19.2729C164.615 19.1923 164.263 19.152 163.9 19.152C163.316 19.152 162.812 19.2729 162.389 19.5145C161.967 19.7361 161.634 20.0785 161.393 20.5417C161.171 21.0049 161.06 21.599 161.06 22.3241V24.3784L160.607 23.7742H165.199V26.1305H161.09V39H158.039ZM173.866 39.2719C172.355 39.2719 171.046 38.9597 169.939 38.3354C168.831 37.6909 167.975 36.7846 167.371 35.6165C166.767 34.4282 166.465 33.0184 166.465 31.3871C166.465 29.7557 166.767 28.356 167.371 27.1879C167.975 25.9996 168.831 25.0933 169.939 24.469C171.046 23.8245 172.355 23.5023 173.866 23.5023C175.376 23.5023 176.686 23.8245 177.793 24.469C178.921 25.0933 179.787 25.9996 180.391 27.1879C181.016 28.356 181.328 29.7557 181.328 31.3871C181.328 33.0184 181.016 34.4282 180.391 35.6165C179.787 36.7846 178.921 37.6909 177.793 38.3354C176.686 38.9597 175.376 39.2719 173.866 39.2719ZM173.866 36.8853C175.195 36.8853 176.253 36.4221 177.038 35.4956C177.824 34.5692 178.216 33.1997 178.216 31.3871C178.216 29.5745 177.824 28.215 177.038 27.3087C176.253 26.3823 175.195 25.9191 173.866 25.9191C172.557 25.9191 171.51 26.3823 170.724 27.3087C169.939 28.215 169.546 29.5745 169.546 31.3871C169.546 33.1997 169.929 34.5692 170.694 35.4956C171.479 36.4221 172.537 36.8853 173.866 36.8853ZM184.834 39V27.5504C184.834 26.9261 184.814 26.3017 184.773 25.6774C184.753 25.0329 184.713 24.3985 184.653 23.7742H187.613L187.946 27.7015H187.462C187.664 26.7549 188.006 25.9694 188.489 25.3451C188.973 24.7207 189.557 24.2575 190.241 23.9554C190.946 23.6533 191.681 23.5023 192.447 23.5023C192.769 23.5023 193.041 23.5224 193.262 23.5627C193.484 23.5828 193.706 23.6231 193.927 23.6835L193.897 26.4024C193.554 26.2614 193.252 26.1809 192.991 26.1608C192.749 26.1205 192.447 26.1003 192.084 26.1003C191.198 26.1003 190.443 26.3017 189.819 26.7045C189.194 27.0872 188.721 27.6108 188.399 28.2754C188.076 28.9401 187.915 29.655 187.915 30.4204V39H184.834ZM202.752 39.2719C201.221 39.2719 199.882 38.9597 198.734 38.3354C197.606 37.6909 196.73 36.7745 196.106 35.5863C195.502 34.3779 195.199 32.9479 195.199 31.2964C195.199 29.6651 195.512 28.2654 196.136 27.0973C196.76 25.9291 197.636 25.043 198.764 24.4388C199.892 23.8144 201.221 23.5023 202.752 23.5023C203.739 23.5023 204.695 23.6735 205.622 24.0158C206.548 24.3381 207.314 24.8013 207.918 25.4055L206.921 27.5504C206.357 27.0066 205.723 26.6038 205.018 26.342C204.313 26.06 203.628 25.9191 202.963 25.9191C201.513 25.9191 200.375 26.3823 199.55 27.3087C198.724 28.2352 198.311 29.5745 198.311 31.3267C198.311 33.099 198.724 34.4584 199.55 35.405C200.375 36.3516 201.513 36.8249 202.963 36.8249C203.608 36.8249 204.283 36.704 204.987 36.4624C205.692 36.2005 206.337 35.7877 206.921 35.2238L207.918 37.3687C207.294 37.9729 206.508 38.4462 205.561 38.7885C204.635 39.1108 203.699 39.2719 202.752 39.2719ZM217.895 39.2719C215.438 39.2719 213.504 38.5771 212.095 37.1874C210.685 35.7977 209.98 33.8744 209.98 31.4173C209.98 29.8262 210.282 28.4366 210.886 27.2483C211.511 26.06 212.367 25.1437 213.454 24.4992C214.562 23.8346 215.841 23.5023 217.291 23.5023C218.721 23.5023 219.919 23.8044 220.886 24.4086C221.852 25.0128 222.588 25.8687 223.091 26.9764C223.595 28.064 223.846 29.3529 223.846 30.8433V31.81H212.367V30.0578H221.762L221.248 30.4506C221.248 28.9401 220.906 27.7719 220.221 26.9462C219.556 26.1003 218.59 25.6774 217.321 25.6774C215.911 25.6774 214.824 26.1708 214.058 27.1577C213.293 28.1244 212.91 29.4637 212.91 31.1756V31.4777C212.91 33.2702 213.343 34.6195 214.209 35.5259C215.095 36.4322 216.344 36.8853 217.955 36.8853C218.842 36.8853 219.667 36.7645 220.433 36.5228C221.218 36.261 221.963 35.838 222.668 35.254L223.665 37.3384C222.96 37.9628 222.104 38.4462 221.097 38.7885C220.09 39.1108 219.023 39.2719 217.895 39.2719ZM226.743 38.0031V35.5259L240.549 29.5745V31.085L226.743 25.1336V22.6564L241.637 29.1515V31.5079L226.743 38.0031Z" fill="#663093"/>
</svg>
