<svg width="16" height="26" viewBox="0 0 16 26" fill="none" xmlns="http://www.w3.org/2000/svg">
<path d="M14.9361 8.75839C15.3928 8.28975 15.3928 7.53815 14.9361 7.06951L8.77502 0.747284C8.5596 0.526227 8.258 0.393593 7.95641 0.393593C7.65482 0.393593 7.35322 0.517385 7.1378 0.747284L0.976679 7.06951C0.519981 7.53815 0.519981 8.28975 0.976679 8.75839C1.20072 8.98829 1.50231 9.11208 1.79529 9.11208C2.08827 9.11208 2.38986 8.99713 2.6139 8.75839L6.79312 4.46988V24.1793C6.79312 24.8425 7.31014 25.373 7.95641 25.373C8.60268 25.373 9.1197 24.8425 9.1197 24.1793V4.46988L13.2989 8.75839C13.747 9.22703 14.4794 9.22703 14.9361 8.75839Z" fill="#8CC2C2"/>
</svg>
