<svg width="42" height="33" viewBox="0 0 42 33" fill="none" xmlns="http://www.w3.org/2000/svg">
<path d="M34.08 11.0078C33.632 8.27555 32.3136 5.78203 30.2972 3.88978C28.0568 1.78532 25.1443 0.626984 22.1111 0.626984C19.7673 0.626984 17.4838 1.31668 15.5277 2.6165C13.8991 3.69525 12.5463 5.15423 11.5898 6.86963C11.1762 6.79005 10.7453 6.74584 10.3145 6.74584C6.65228 6.74584 3.67082 9.80526 3.67082 13.5632C3.67082 14.0496 3.72252 14.5182 3.80869 14.978C1.43903 16.7464 0 19.5937 0 22.6266C0 25.0759 0.887546 27.4544 2.50753 29.3378C4.1706 31.2655 6.36792 32.4061 8.71173 32.5387C8.73759 32.5387 8.75482 32.5387 8.78067 32.5387H16.1912C16.8375 32.5387 17.3545 32.0082 17.3545 31.345C17.3545 30.6819 16.8375 30.1513 16.1912 30.1513H8.81514C5.29081 29.9303 2.32658 26.4906 2.32658 22.6177C2.32658 20.1154 3.63635 17.781 5.7475 16.5166C6.23867 16.2248 6.44548 15.6146 6.2559 15.0664C6.08357 14.5889 5.9974 14.0849 5.9974 13.5455C5.9974 11.1051 7.93621 9.11557 10.3145 9.11557C10.8229 9.11557 11.3227 9.20399 11.788 9.38083C12.3567 9.59305 12.9857 9.32778 13.2442 8.77072C14.8556 5.26033 18.3369 2.99671 22.1197 2.99671C27.2037 2.99671 31.4002 6.905 31.8827 12.0866C31.9344 12.6259 32.3308 13.0592 32.8478 13.1476C36.6824 13.8197 39.5776 17.4538 39.5776 21.6009C39.5776 25.9955 36.2084 29.8153 32.055 30.1425H25.7044C25.0581 30.1425 24.5411 30.673 24.5411 31.3362C24.5411 31.9994 25.0581 32.5299 25.7044 32.5299H32.0981C32.124 32.5299 32.1498 32.5299 32.1843 32.5299C34.8125 32.3354 37.2683 31.0975 39.0951 29.0284C40.9133 26.977 41.9042 24.342 41.9042 21.6009C41.8956 16.6403 38.5953 12.228 34.08 11.0078Z" fill="#8CC2C2"/>
</svg>
